<svg xmlns="http://www.w3.org/2000/svg" xmlns:xlink="http://www.w3.org/1999/xlink" contentStyleType="text/css" data-diagram-type="DESCRIPTION" height="924px" preserveAspectRatio="none" style="width:1720px;height:924px;background:#FFFFFF;" version="1.1" viewBox="0 0 1720 924" width="1720px" zoomAndPan="magnify"><defs/><g><!--cluster Networking--><g class="cluster" data-entity="Networking" data-source-line="14" data-uid="ent0004" id="cluster_Networking"><path d="M8.5,6 L100.958,6 A3.75,3.75 0 0 1 103.458,8.5 L110.458,28.2969 L529.5,28.2969 A2.5,2.5 0 0 1 532,30.7969 L532,642.99 A2.5,2.5 0 0 1 529.5,645.49 L8.5,645.49 A2.5,2.5 0 0 1 6,642.99 L6,8.5 A2.5,2.5 0 0 1 8.5,6" fill="none" style="stroke:#000000;stroke-width:1.5;"/><line style="stroke:#000000;stroke-width:1.5;" x1="6" x2="110.458" y1="28.2969" y2="28.2969"/><text fill="#000000" font-family="sans-serif" font-size="14" font-weight="bold" lengthAdjust="spacing" textLength="91.458" x="10" y="20.9951">Networking</text></g><!--cluster Domain--><g class="cluster" data-entity="Domain" data-source-line="28" data-uid="ent0015" id="cluster_Domain"><path d="M1303.5,403.89 L1364.54,403.89 A3.75,3.75 0 0 1 1367.04,406.39 L1374.04,426.1869 L1662.5,426.1869 A2.5,2.5 0 0 1 1665,428.6869 L1665,789.28 A2.5,2.5 0 0 1 1662.5,791.78 L1303.5,791.78 A2.5,2.5 0 0 1 1301,789.28 L1301,406.39 A2.5,2.5 0 0 1 1303.5,403.89" fill="none" style="stroke:#000000;stroke-width:1.5;"/><line style="stroke:#000000;stroke-width:1.5;" x1="1301" x2="1374.04" y1="426.1869" y2="426.1869"/><text fill="#000000" font-family="sans-serif" font-size="14" font-weight="bold" lengthAdjust="spacing" textLength="60.04" x="1305" y="418.8851">Domain</text></g><!--cluster Buffers--><g class="cluster" data-entity="Buffers" data-source-line="36" data-uid="ent0020" id="cluster_Buffers"><path d="M558.5,548.19 L617.0518,548.19 A3.75,3.75 0 0 1 619.5518,550.69 L626.5518,570.4869 L765.5,570.4869 A2.5,2.5 0 0 1 768,572.9869 L768,914.58 A2.5,2.5 0 0 1 765.5,917.08 L558.5,917.08 A2.5,2.5 0 0 1 556,914.58 L556,550.69 A2.5,2.5 0 0 1 558.5,548.19" fill="none" style="stroke:#000000;stroke-width:1.5;"/><line style="stroke:#000000;stroke-width:1.5;" x1="556" x2="626.5518" y1="570.4869" y2="570.4869"/><text fill="#000000" font-family="sans-serif" font-size="14" font-weight="bold" lengthAdjust="spacing" textLength="57.5518" x="560" y="563.1851">Buffers</text></g><!--cluster Data--><g class="cluster" data-entity="Data" data-source-line="43" data-uid="ent0024" id="cluster_Data"><path d="M870.5,694.49 L908.708,694.49 A3.75,3.75 0 0 1 911.208,696.99 L918.208,716.7869 L1274.5,716.7869 A2.5,2.5 0 0 1 1277,719.2869 L1277,914.58 A2.5,2.5 0 0 1 1274.5,917.08 L870.5,917.08 A2.5,2.5 0 0 1 868,914.58 L868,696.99 A2.5,2.5 0 0 1 870.5,694.49" fill="none" style="stroke:#000000;stroke-width:1.5;"/><line style="stroke:#000000;stroke-width:1.5;" x1="868" x2="918.208" y1="716.7869" y2="716.7869"/><text fill="#000000" font-family="sans-serif" font-size="14" font-weight="bold" lengthAdjust="spacing" textLength="37.208" x="872" y="709.4851">Data</text></g><!--cluster Runtime--><g class="cluster" data-entity="Runtime" data-source-line="50" data-uid="ent0028" id="cluster_Runtime"><path d="M688.5,257.6 L755.7881,257.6 A3.75,3.75 0 0 1 758.2881,260.1 L765.2881,279.8969 L865.5,279.8969 A2.5,2.5 0 0 1 868,282.3969 L868,352.39 A2.5,2.5 0 0 1 865.5,354.89 L688.5,354.89 A2.5,2.5 0 0 1 686,352.39 L686,260.1 A2.5,2.5 0 0 1 688.5,257.6" fill="none" style="stroke:#000000;stroke-width:1.5;"/><line style="stroke:#000000;stroke-width:1.5;" x1="686" x2="765.2881" y1="279.8969" y2="279.8969"/><text fill="#000000" font-family="sans-serif" font-size="14" font-weight="bold" lengthAdjust="spacing" textLength="66.2881" x="690" y="272.5951">Runtime</text></g><!--entity Listener--><g class="entity" data-entity="Listener" data-source-line="15" data-uid="ent0005" id="entity_Listener"><rect fill="#FFFFFF" height="46.2969" rx="2.5" ry="2.5" style="stroke:#000000;stroke-width:0.5;" width="96.3281" x="163.84" y="292.6"/><rect fill="#FFFFFF" height="10" style="stroke:#000000;stroke-width:0.5;" width="15" x="240.1681" y="297.6"/><rect fill="#FFFFFF" height="2" style="stroke:#000000;stroke-width:0.5;" width="4" x="238.1681" y="299.6"/><rect fill="#FFFFFF" height="2" style="stroke:#000000;stroke-width:0.5;" width="4" x="238.1681" y="303.6"/><text fill="#000000" font-family="sans-serif" font-size="14" lengthAdjust="spacing" textLength="56.3281" x="178.84" y="325.5951">Listener</text></g><!--entity Service--><g class="entity" data-entity="Service" data-source-line="16" data-uid="ent0006" id="entity_Service"><rect fill="#FFFFFF" height="46.2969" rx="2.5" ry="2.5" style="stroke:#000000;stroke-width:0.5;" width="91.7412" x="67.13" y="148.3"/><rect fill="#FFFFFF" height="10" style="stroke:#000000;stroke-width:0.5;" width="15" x="138.8712" y="153.3"/><rect fill="#FFFFFF" height="2" style="stroke:#000000;stroke-width:0.5;" width="4" x="136.8712" y="155.3"/><rect fill="#FFFFFF" height="2" style="stroke:#000000;stroke-width:0.5;" width="4" x="136.8712" y="159.3"/><text fill="#000000" font-family="sans-serif" font-size="14" lengthAdjust="spacing" textLength="51.7412" x="82.13" y="181.2951">Service</text></g><!--entity ServerService--><g class="entity" data-entity="ServerService" data-source-line="17" data-uid="ent0007" id="entity_ServerService"><rect fill="#FFFFFF" height="46.2969" rx="2.5" ry="2.5" style="stroke:#000000;stroke-width:0.5;" width="137.6514" x="29.17" y="41"/><rect fill="#FFFFFF" height="10" style="stroke:#000000;stroke-width:0.5;" width="15" x="146.8214" y="46"/><rect fill="#FFFFFF" height="2" style="stroke:#000000;stroke-width:0.5;" width="4" x="144.8214" y="48"/><rect fill="#FFFFFF" height="2" style="stroke:#000000;stroke-width:0.5;" width="4" x="144.8214" y="52"/><text fill="#000000" font-family="sans-serif" font-size="14" lengthAdjust="spacing" textLength="97.6514" x="44.17" y="73.9951">ServerService</text></g><!--entity ClientService--><g class="entity" data-entity="ClientService" data-source-line="18" data-uid="ent0008" id="entity_ClientService"><rect fill="#FFFFFF" height="46.2969" rx="2.5" ry="2.5" style="stroke:#000000;stroke-width:0.5;" width="132.2715" x="201.86" y="41"/><rect fill="#FFFFFF" height="10" style="stroke:#000000;stroke-width:0.5;" width="15" x="314.1315" y="46"/><rect fill="#FFFFFF" height="2" style="stroke:#000000;stroke-width:0.5;" width="4" x="312.1315" y="48"/><rect fill="#FFFFFF" height="2" style="stroke:#000000;stroke-width:0.5;" width="4" x="312.1315" y="52"/><text fill="#000000" font-family="sans-serif" font-size="14" lengthAdjust="spacing" textLength="92.2715" x="216.86" y="73.9951">ClientService</text></g><!--entity IocpCore--><g class="entity" data-entity="IocpCore" data-source-line="19" data-uid="ent0009" id="entity_IocpCore"><rect fill="#FFFFFF" height="46.2969" rx="2.5" ry="2.5" style="stroke:#000000;stroke-width:0.5;" width="101.9883" x="22.01" y="438.89"/><rect fill="#FFFFFF" height="10" style="stroke:#000000;stroke-width:0.5;" width="15" x="103.9983" y="443.89"/><rect fill="#FFFFFF" height="2" style="stroke:#000000;stroke-width:0.5;" width="4" x="101.9983" y="445.89"/><rect fill="#FFFFFF" height="2" style="stroke:#000000;stroke-width:0.5;" width="4" x="101.9983" y="449.89"/><text fill="#000000" font-family="sans-serif" font-size="14" lengthAdjust="spacing" textLength="61.9883" x="37.01" y="471.8851">IocpCore</text></g><!--entity Session--><g class="entity" data-entity="Session" data-source-line="20" data-uid="ent0010" id="entity_Session"><rect fill="#FFFFFF" height="46.2969" rx="2.5" ry="2.5" style="stroke:#000000;stroke-width:0.5;" width="93.416" x="164.29" y="583.19"/><rect fill="#FFFFFF" height="10" style="stroke:#000000;stroke-width:0.5;" width="15" x="237.706" y="588.19"/><rect fill="#FFFFFF" height="2" style="stroke:#000000;stroke-width:0.5;" width="4" x="235.706" y="590.19"/><rect fill="#FFFFFF" height="2" style="stroke:#000000;stroke-width:0.5;" width="4" x="235.706" y="594.19"/><text fill="#000000" font-family="sans-serif" font-size="14" lengthAdjust="spacing" textLength="53.416" x="179.29" y="616.1851">Session</text></g><!--entity PacketSession--><g class="entity" data-entity="PacketSession" data-source-line="21" data-uid="ent0011" id="entity_PacketSession"><rect fill="#FFFFFF" height="46.2969" rx="2.5" ry="2.5" style="stroke:#000000;stroke-width:0.5;" width="140.3447" x="158.83" y="438.89"/><rect fill="#FFFFFF" height="10" style="stroke:#000000;stroke-width:0.5;" width="15" x="279.1747" y="443.89"/><rect fill="#FFFFFF" height="2" style="stroke:#000000;stroke-width:0.5;" width="4" x="277.1747" y="445.89"/><rect fill="#FFFFFF" height="2" style="stroke:#000000;stroke-width:0.5;" width="4" x="277.1747" y="449.89"/><text fill="#000000" font-family="sans-serif" font-size="14" lengthAdjust="spacing" textLength="100.3447" x="173.83" y="471.8851">PacketSession</text></g><!--entity ChatSession--><g class="entity" data-entity="ChatSession" data-source-line="22" data-uid="ent0012" id="entity_ChatSession"><rect fill="#FFFFFF" height="46.2969" rx="2.5" ry="2.5" style="stroke:#000000;stroke-width:0.5;" width="126.1328" x="296.93" y="292.6"/><rect fill="#FFFFFF" height="10" style="stroke:#000000;stroke-width:0.5;" width="15" x="403.0628" y="297.6"/><rect fill="#FFFFFF" height="2" style="stroke:#000000;stroke-width:0.5;" width="4" x="401.0628" y="299.6"/><rect fill="#FFFFFF" height="2" style="stroke:#000000;stroke-width:0.5;" width="4" x="401.0628" y="303.6"/><text fill="#000000" font-family="sans-serif" font-size="14" lengthAdjust="spacing" textLength="86.1328" x="311.93" y="325.5951">ChatSession</text></g><!--entity ChatSessionManager--><g class="entity" data-entity="ChatSessionManager" data-source-line="23" data-uid="ent0013" id="entity_ChatSessionManager"><rect fill="#FFFFFF" height="46.2969" rx="2.5" ry="2.5" style="stroke:#000000;stroke-width:0.5;" width="187.499" x="266.25" y="148.3"/><rect fill="#FFFFFF" height="10" style="stroke:#000000;stroke-width:0.5;" width="15" x="433.749" y="153.3"/><rect fill="#FFFFFF" height="2" style="stroke:#000000;stroke-width:0.5;" width="4" x="431.749" y="155.3"/><rect fill="#FFFFFF" height="2" style="stroke:#000000;stroke-width:0.5;" width="4" x="431.749" y="159.3"/><text fill="#000000" font-family="sans-serif" font-size="14" lengthAdjust="spacing" textLength="147.499" x="281.25" y="181.2951">ChatSessionManager</text></g><!--entity ClientPacketHandler--><g class="entity" data-entity="ClientPacketHandler" data-source-line="24" data-uid="ent0014" id="entity_ClientPacketHandler"><rect fill="#FFFFFF" height="46.2969" rx="2.5" ry="2.5" style="stroke:#000000;stroke-width:0.5;" width="182.584" x="333.71" y="438.89"/><rect fill="#FFFFFF" height="10" style="stroke:#000000;stroke-width:0.5;" width="15" x="496.294" y="443.89"/><rect fill="#FFFFFF" height="2" style="stroke:#000000;stroke-width:0.5;" width="4" x="494.294" y="445.89"/><rect fill="#FFFFFF" height="2" style="stroke:#000000;stroke-width:0.5;" width="4" x="494.294" y="449.89"/><text fill="#000000" font-family="sans-serif" font-size="14" lengthAdjust="spacing" textLength="142.584" x="348.71" y="471.8851">ClientPacketHandler</text></g><!--entity RoomManager--><g class="entity" data-entity="RoomManager" data-source-line="29" data-uid="ent0016" id="entity_RoomManager"><rect fill="#FFFFFF" height="46.2969" rx="2.5" ry="2.5" style="stroke:#000000;stroke-width:0.5;" width="141.8623" x="1317.07" y="438.89"/><rect fill="#FFFFFF" height="10" style="stroke:#000000;stroke-width:0.5;" width="15" x="1438.9323" y="443.89"/><rect fill="#FFFFFF" height="2" style="stroke:#000000;stroke-width:0.5;" width="4" x="1436.9323" y="445.89"/><rect fill="#FFFFFF" height="2" style="stroke:#000000;stroke-width:0.5;" width="4" x="1436.9323" y="449.89"/><text fill="#000000" font-family="sans-serif" font-size="14" lengthAdjust="spacing" textLength="101.8623" x="1332.07" y="471.8851">RoomManager</text></g><!--entity Room--><g class="entity" data-entity="Room" data-source-line="30" data-uid="ent0017" id="entity_Room"><rect fill="#FFFFFF" height="46.2969" rx="2.5" ry="2.5" style="stroke:#000000;stroke-width:0.5;" width="80.4961" x="1317.75" y="583.19"/><rect fill="#FFFFFF" height="10" style="stroke:#000000;stroke-width:0.5;" width="15" x="1378.2461" y="588.19"/><rect fill="#FFFFFF" height="2" style="stroke:#000000;stroke-width:0.5;" width="4" x="1376.2461" y="590.19"/><rect fill="#FFFFFF" height="2" style="stroke:#000000;stroke-width:0.5;" width="4" x="1376.2461" y="594.19"/><text fill="#000000" font-family="sans-serif" font-size="14" lengthAdjust="spacing" textLength="40.4961" x="1332.75" y="616.1851">Room</text></g><!--entity Player--><g class="entity" data-entity="Player" data-source-line="31" data-uid="ent0018" id="entity_Player"><rect fill="#FFFFFF" height="46.2969" rx="2.5" ry="2.5" style="stroke:#000000;stroke-width:0.5;" width="83.5654" x="1317.22" y="729.49"/><rect fill="#FFFFFF" height="10" style="stroke:#000000;stroke-width:0.5;" width="15" x="1380.7854" y="734.49"/><rect fill="#FFFFFF" height="2" style="stroke:#000000;stroke-width:0.5;" width="4" x="1378.7854" y="736.49"/><rect fill="#FFFFFF" height="2" style="stroke:#000000;stroke-width:0.5;" width="4" x="1378.7854" y="740.49"/><text fill="#000000" font-family="sans-serif" font-size="14" lengthAdjust="spacing" textLength="43.5654" x="1332.22" y="762.4851">Player</text></g><!--entity JobQueue--><g class="entity" data-entity="JobQueue" data-source-line="32" data-uid="ent0019" id="entity_JobQueue"><rect fill="#FFFFFF" height="46.2969" rx="2.5" ry="2.5" style="stroke:#000000;stroke-width:0.5;" width="107.5732" x="1436.21" y="729.49"/><rect fill="#FFFFFF" height="10" style="stroke:#000000;stroke-width:0.5;" width="15" x="1523.7832" y="734.49"/><rect fill="#FFFFFF" height="2" style="stroke:#000000;stroke-width:0.5;" width="4" x="1521.7832" y="736.49"/><rect fill="#FFFFFF" height="2" style="stroke:#000000;stroke-width:0.5;" width="4" x="1521.7832" y="740.49"/><text fill="#000000" font-family="sans-serif" font-size="14" lengthAdjust="spacing" textLength="67.5732" x="1451.21" y="762.4851">JobQueue</text></g><!--entity SendBufferManager--><g class="entity" data-entity="SendBufferManager" data-source-line="37" data-uid="ent0021" id="entity_SendBufferManager"><rect fill="#FFFFFF" height="46.2969" rx="2.5" ry="2.5" style="stroke:#000000;stroke-width:0.5;" width="179.3301" x="572.33" y="583.19"/><rect fill="#FFFFFF" height="10" style="stroke:#000000;stroke-width:0.5;" width="15" x="731.6601" y="588.19"/><rect fill="#FFFFFF" height="2" style="stroke:#000000;stroke-width:0.5;" width="4" x="729.6601" y="590.19"/><rect fill="#FFFFFF" height="2" style="stroke:#000000;stroke-width:0.5;" width="4" x="729.6601" y="594.19"/><text fill="#000000" font-family="sans-serif" font-size="14" lengthAdjust="spacing" textLength="139.3301" x="587.33" y="616.1851">SendBufferManager</text></g><!--entity SendBufferChunk--><g class="entity" data-entity="SendBufferChunk" data-source-line="38" data-uid="ent0022" id="entity_SendBufferChunk"><rect fill="#FFFFFF" height="46.2969" rx="2.5" ry="2.5" style="stroke:#000000;stroke-width:0.5;" width="162.4658" x="571.77" y="729.49"/><rect fill="#FFFFFF" height="10" style="stroke:#000000;stroke-width:0.5;" width="15" x="714.2358" y="734.49"/><rect fill="#FFFFFF" height="2" style="stroke:#000000;stroke-width:0.5;" width="4" x="712.2358" y="736.49"/><rect fill="#FFFFFF" height="2" style="stroke:#000000;stroke-width:0.5;" width="4" x="712.2358" y="740.49"/><text fill="#000000" font-family="sans-serif" font-size="14" lengthAdjust="spacing" textLength="122.4658" x="586.77" y="762.4851">SendBufferChunk</text></g><!--entity SendBuffer--><g class="entity" data-entity="SendBuffer" data-source-line="39" data-uid="ent0023" id="entity_SendBuffer"><rect fill="#FFFFFF" height="46.2969" rx="2.5" ry="2.5" style="stroke:#000000;stroke-width:0.5;" width="117.9639" x="583.02" y="854.78"/><rect fill="#FFFFFF" height="10" style="stroke:#000000;stroke-width:0.5;" width="15" x="680.9839" y="859.78"/><rect fill="#FFFFFF" height="2" style="stroke:#000000;stroke-width:0.5;" width="4" x="678.9839" y="861.78"/><rect fill="#FFFFFF" height="2" style="stroke:#000000;stroke-width:0.5;" width="4" x="678.9839" y="865.78"/><text fill="#000000" font-family="sans-serif" font-size="14" lengthAdjust="spacing" textLength="77.9639" x="598.02" y="887.7751">SendBuffer</text></g><!--entity DBConnectionPool--><g class="entity" data-entity="DBConnectionPool" data-source-line="44" data-uid="ent0025" id="entity_DBConnectionPool"><rect fill="#FFFFFF" height="46.2969" rx="2.5" ry="2.5" style="stroke:#000000;stroke-width:0.5;" width="169.0625" x="1091.47" y="729.49"/><rect fill="#FFFFFF" height="10" style="stroke:#000000;stroke-width:0.5;" width="15" x="1240.5325" y="734.49"/><rect fill="#FFFFFF" height="2" style="stroke:#000000;stroke-width:0.5;" width="4" x="1238.5325" y="736.49"/><rect fill="#FFFFFF" height="2" style="stroke:#000000;stroke-width:0.5;" width="4" x="1238.5325" y="740.49"/><text fill="#000000" font-family="sans-serif" font-size="14" lengthAdjust="spacing" textLength="129.0625" x="1106.47" y="762.4851">DBConnectionPool</text></g><!--entity DBConnection--><g class="entity" data-entity="DBConnection" data-source-line="45" data-uid="ent0026" id="entity_DBConnection"><rect fill="#FFFFFF" height="46.2969" rx="2.5" ry="2.5" style="stroke:#000000;stroke-width:0.5;" width="139.5996" x="1106.2" y="854.78"/><rect fill="#FFFFFF" height="10" style="stroke:#000000;stroke-width:0.5;" width="15" x="1225.7996" y="859.78"/><rect fill="#FFFFFF" height="2" style="stroke:#000000;stroke-width:0.5;" width="4" x="1223.7996" y="861.78"/><rect fill="#FFFFFF" height="2" style="stroke:#000000;stroke-width:0.5;" width="4" x="1223.7996" y="865.78"/><text fill="#000000" font-family="sans-serif" font-size="14" lengthAdjust="spacing" textLength="99.5996" x="1121.2" y="887.7751">DBConnection</text></g><!--entity Protocol--><g class="entity" data-entity="Protocol" data-source-line="46" data-uid="ent0027" id="entity_Protocol"><rect fill="#FFFFFF" height="46.2969" rx="2.5" ry="2.5" style="stroke:#000000;stroke-width:0.5;" width="172.2959" x="883.85" y="729.49"/><rect fill="#FFFFFF" height="10" style="stroke:#000000;stroke-width:0.5;" width="15" x="1036.1459" y="734.49"/><rect fill="#FFFFFF" height="2" style="stroke:#000000;stroke-width:0.5;" width="4" x="1034.1459" y="736.49"/><rect fill="#FFFFFF" height="2" style="stroke:#000000;stroke-width:0.5;" width="4" x="1034.1459" y="740.49"/><text fill="#000000" font-family="sans-serif" font-size="14" lengthAdjust="spacing" textLength="132.2959" x="898.85" y="762.4851">Protocol (protobuf)</text></g><!--entity ThreadManager--><g class="entity" data-entity="ThreadManager" data-source-line="51" data-uid="ent0029" id="entity_ThreadManager"><rect fill="#FFFFFF" height="46.2969" rx="2.5" ry="2.5" style="stroke:#000000;stroke-width:0.5;" width="150.626" x="701.69" y="292.6"/><rect fill="#FFFFFF" height="10" style="stroke:#000000;stroke-width:0.5;" width="15" x="832.316" y="297.6"/><rect fill="#FFFFFF" height="2" style="stroke:#000000;stroke-width:0.5;" width="4" x="830.316" y="299.6"/><rect fill="#FFFFFF" height="2" style="stroke:#000000;stroke-width:0.5;" width="4" x="830.316" y="303.6"/><text fill="#000000" font-family="sans-serif" font-size="14" lengthAdjust="spacing" textLength="110.626" x="716.69" y="325.5951">ThreadManager</text></g><!--entity Clients--><g class="entity" data-entity="Clients" data-source-line="10" data-uid="ent0002" id="entity_Clients"><rect fill="#FFFFFF" height="46.2969" rx="2.5" ry="2.5" style="stroke:#000000;stroke-width:0.5;" width="87.8242" x="548.09" y="148.3"/><rect fill="#FFFFFF" height="10" style="stroke:#000000;stroke-width:0.5;" width="15" x="615.9142" y="153.3"/><rect fill="#FFFFFF" height="2" style="stroke:#000000;stroke-width:0.5;" width="4" x="613.9142" y="155.3"/><rect fill="#FFFFFF" height="2" style="stroke:#000000;stroke-width:0.5;" width="4" x="613.9142" y="159.3"/><text fill="#000000" font-family="sans-serif" font-size="14" lengthAdjust="spacing" textLength="47.8242" x="563.09" y="181.2951">Clients</text></g><!--entity MSSQL--><g class="entity" data-entity="MSSQL" data-source-line="11" data-uid="ent0003" id="entity_MSSQL"><path d="M783.66,865.28 C783.66,855.28 817.9959,855.28 817.9959,855.28 C817.9959,855.28 852.3319,855.28 852.3319,865.28 L852.3319,890.5769 C852.3319,900.5769 817.9959,900.5769 817.9959,900.5769 C817.9959,900.5769 783.66,900.5769 783.66,890.5769 L783.66,865.28" fill="#F1F1F1" style="stroke:#181818;stroke-width:0.5;"/><path d="M783.66,865.28 C783.66,875.28 817.9959,875.28 817.9959,875.28 C817.9959,875.28 852.3319,875.28 852.3319,865.28" fill="none" style="stroke:#181818;stroke-width:0.5;"/><text fill="#000000" font-family="sans-serif" font-size="14" lengthAdjust="spacing" textLength="48.6719" x="793.66" y="892.2751">MSSQL</text></g><!--link Clients to Listener--><g class="link" data-entity-1="Clients" data-entity-2="Listener" data-source-line="55" data-uid="lnk30" id="link_Clients_Listener"><path d="M576.5,194.99 C563.92,211.21 544.6,231.88 522,241.6 C472.36,262.94 328.72,228.45 279,249.6 C258.1,258.49 243.7746,272.4599 231.6846,287.5299" fill="none" id="Clients-to-Listener" style="stroke:#000000;stroke-width:1;"/><polygon fill="#000000" points="227.93,292.21,236.6819,287.693,231.0588,288.31,230.4419,282.6868,227.93,292.21" style="stroke:#000000;stroke-width:1;"/><text fill="#000000" font-family="sans-serif" font-size="13" lengthAdjust="spacing" textLength="153.8989" x="547" y="237.6669">TCP connect / AcceptEx</text></g><!--link Listener to IocpCore--><g class="link" data-entity-1="Listener" data-entity-2="IocpCore" data-source-line="56" data-uid="lnk31" id="link_Listener_IocpCore"><path d="M179.43,339.38 C166.62,347.58 151.52,356.41 137,362.89 C125.57,367.99 119.29,362.5 110,370.89 C90.42,388.58 82.2233,412.3245 77.8233,432.7545" fill="none" id="Listener-to-IocpCore" style="stroke:#000000;stroke-width:1;"/><polygon fill="#000000" points="76.56,438.62,82.3652,430.6639,77.6127,433.7321,74.5445,428.9796,76.56,438.62" style="stroke:#000000;stroke-width:1;"/><text fill="#000000" font-family="sans-serif" font-size="13" lengthAdjust="spacing" textLength="193.7939" x="111" y="383.9569">Register / accept completions</text></g><!--link Service to Listener--><g class="link" data-entity-1="Service" data-entity-2="Listener" data-source-line="57" data-uid="lnk32" id="link_Service_Listener"><path d="M123.52,194.94 C130.37,208.81 139.89,226.73 150,241.6 C162.26,259.63 174.1859,273.9096 186.8359,287.8996" fill="none" id="Service-to-Listener" style="stroke:#000000;stroke-width:1;"/><polygon fill="#000000" points="190.86,292.35,187.7907,282.9916,187.5065,288.6413,181.8568,288.3571,190.86,292.35" style="stroke:#000000;stroke-width:1;"/><text fill="#000000" font-family="sans-serif" font-size="13" lengthAdjust="spacing" textLength="200.0908" x="151" y="237.6669">CreateSession / ProcessAccept</text></g><!--link Service to IocpCore--><g class="link" data-entity-1="Service" data-entity-2="IocpCore" data-source-line="58" data-uid="lnk33" id="link_Service_IocpCore"><path d="M104.88,195.09 C99.77,210.31 93.5,230.91 90,249.6 C77.27,317.65 74.1936,393.7813 73.3936,432.6213" fill="none" id="Service-to-IocpCore" style="stroke:#000000;stroke-width:1;"/><polygon fill="#000000" points="73.27,438.62,77.4545,429.7043,73.373,433.6211,69.4562,429.5395,73.27,438.62" style="stroke:#000000;stroke-width:1;"/><text fill="#000000" font-family="sans-serif" font-size="13" lengthAdjust="spacing" textLength="54.1074" x="91" y="320.3069">Register</text></g><!--link ServerService to Service--><g class="link" data-entity-1="ServerService" data-entity-2="Service" data-source-line="59" data-uid="lnk34" id="link_ServerService_Service"><path d="M101.22,87.74 C103.75,105.51 106.4138,124.2 108.9438,141.96" fill="none" id="ServerService-to-Service" style="stroke:#000000;stroke-width:1;"/><polygon fill="#000000" points="109.79,147.9,112.4807,138.4258,109.0848,142.95,104.5607,139.5541,109.79,147.9" style="stroke:#000000;stroke-width:1;"/></g><!--link ClientService to Service--><g class="link" data-entity-1="ClientService" data-entity-2="Service" data-source-line="60" data-uid="lnk35" id="link_ClientService_Service"><path d="M234.75,87.74 C208.6,105.51 177.2923,126.7672 151.1623,144.5272" fill="none" id="ClientService-to-Service" style="stroke:#000000;stroke-width:1;"/><polygon fill="#000000" points="146.2,147.9,155.892,146.149,150.3353,145.0894,151.3949,139.5326,146.2,147.9" style="stroke:#000000;stroke-width:1;"/></g><!--link IocpCore to Session--><g class="link" data-entity-1="IocpCore" data-entity-2="Session" data-source-line="62" data-uid="lnk36" id="link_IocpCore_Session"><path d="M94.87,485.59 C120.71,512.23 159.2626,551.9931 185.0626,578.5931" fill="none" id="IocpCore-to-Session" style="stroke:#000000;stroke-width:1;"/><polygon fill="#000000" points="189.24,582.9,185.8452,573.6547,185.7588,579.3109,180.1027,579.2246,189.24,582.9" style="stroke:#000000;stroke-width:1;"/><text fill="#000000" font-family="sans-serif" font-size="13" lengthAdjust="spacing" textLength="218.6323" x="138" y="528.2569">recv/send completions (Dispatch)</text></g><!--link Session to IocpCore--><g class="link" data-entity-1="Session" data-entity-2="IocpCore" data-source-line="63" data-uid="lnk37" id="link_Session_IocpCore"><path d="M164.13,596.3 C129.05,586.81 83.42,568.06 61,532.19 C52.28,518.24 53.9344,505.3655 59.4844,491.0255" fill="none" id="Session-to-IocpCore" style="stroke:#000000;stroke-width:1;"/><polygon fill="#000000" points="61.65,485.43,54.6712,492.3795,59.8453,490.0929,62.1319,495.2671,61.65,485.43" style="stroke:#000000;stroke-width:1;"/><text fill="#000000" font-family="sans-serif" font-size="13" lengthAdjust="spacing" textLength="54.1074" x="62" y="528.2569">Register</text></g><!--link PacketSession to Session--><g class="link" data-entity-1="PacketSession" data-entity-2="Session" data-source-line="64" data-uid="lnk38" id="link_PacketSession_Session"><path d="M299.58,484.07 C334.82,495.28 371.04,508.17 376,515.19 C380.36,521.36 380.12,525.86 376,532.19 C350.11,571.98 302.9478,589.0376 263.9678,597.3576" fill="none" id="PacketSession-to-Session" style="stroke:#000000;stroke-width:1;"/><polygon fill="#000000" points="258.1,598.61,267.7367,600.6432,262.9899,597.5663,266.0668,592.8194,258.1,598.61" style="stroke:#000000;stroke-width:1;"/></g><!--link ChatSession to PacketSession--><g class="link" data-entity-1="ChatSession" data-entity-2="PacketSession" data-source-line="65" data-uid="lnk39" id="link_ChatSession_PacketSession"><path d="M347.25,339.32 C338.51,353.89 326.16,372.86 313,387.89 C296.7,406.52 280.3736,421.0374 263.4436,434.6674" fill="none" id="ChatSession-to-PacketSession" style="stroke:#000000;stroke-width:1;"/><polygon fill="#000000" points="258.77,438.43,268.2888,435.9018,262.6647,435.2945,263.272,429.6703,258.77,438.43" style="stroke:#000000;stroke-width:1;"/></g><!--link ChatSessionManager to ChatSession--><g class="link" data-entity-1="ChatSessionManager" data-entity-2="ChatSession" data-source-line="66" data-uid="lnk40" id="link_ChatSessionManager_ChatSession"><path d="M360,194.99 C360,221.64 360,259.7 360,286.3" fill="none" id="ChatSessionManager-to-ChatSession" style="stroke:#000000;stroke-width:1;"/><polygon fill="#000000" points="360,292.3,364,283.3,360,287.3,356,283.3,360,292.3" style="stroke:#000000;stroke-width:1;"/><text fill="#000000" font-family="sans-serif" font-size="13" lengthAdjust="spacing" textLength="152.915" x="361" y="237.6669">Add/Remove/Broadcast</text></g><!--link ChatSession to ClientPacketHandler--><g class="link" data-entity-1="ChatSession" data-entity-2="ClientPacketHandler" data-source-line="69" data-uid="lnk41" id="link_ChatSession_ClientPacketHandler"><path d="M354.48,339.31 C352.05,353.7 350.94,372.47 357,387.89 C364.8,407.74 376.3285,421.3993 390.8585,434.3993" fill="none" id="ChatSession-to-ClientPacketHandler" style="stroke:#000000;stroke-width:1;"/><polygon fill="#000000" points="395.33,438.4,391.2898,429.418,391.6037,435.0661,385.9556,435.38,395.33,438.4" style="stroke:#000000;stroke-width:1;"/><text fill="#000000" font-family="sans-serif" font-size="13" lengthAdjust="spacing" textLength="89.4194" x="358" y="383.9569">HandlePacket</text></g><!--link ClientPacketHandler to Protocol--><g class="link" data-entity-1="ClientPacketHandler" data-entity-2="Protocol" data-source-line="70" data-uid="lnk42" id="link_ClientPacketHandler_Protocol"><path d="M516.61,468.89 C588.94,476.86 690.27,495.69 768,540.19 C853.48,589.12 922.0297,680.3629 951.8497,724.0929" fill="none" id="ClientPacketHandler-to-Protocol" style="stroke:#000000;stroke-width:1;"/><polygon fill="#000000" points="955.23,729.05,953.4643,719.3607,952.4131,724.919,946.8547,723.8678,955.23,729.05" style="stroke:#000000;stroke-width:1;"/><text fill="#000000" font-family="sans-serif" font-size="13" lengthAdjust="spacing" textLength="94.4531" x="897" y="610.9069">serialize/parse</text></g><!--link ClientPacketHandler to SendBufferManager--><g class="link" data-entity-1="ClientPacketHandler" data-entity-2="SendBufferManager" data-source-line="71" data-uid="lnk43" id="link_ClientPacketHandler_SendBufferManager"><path d="M462.55,485.59 C506.93,512.23 575.1761,553.2113 619.4761,579.8113" fill="none" id="ClientPacketHandler-to-SendBufferManager" style="stroke:#000000;stroke-width:1;"/><polygon fill="#000000" points="624.62,582.9,618.9632,574.8377,620.3334,580.3261,614.845,581.6963,624.62,582.9" style="stroke:#000000;stroke-width:1;"/><text fill="#000000" font-family="sans-serif" font-size="13" lengthAdjust="spacing" textLength="116.3652" x="537" y="528.2569">Open / build reply</text></g><!--link SendBufferManager to SendBufferChunk--><g class="link" data-entity-1="SendBufferManager" data-entity-2="SendBufferChunk" data-source-line="72" data-uid="lnk44" id="link_SendBufferManager_SendBufferChunk"><path d="M660.59,629.88 C658.9,656.99 656.4521,696.2215 654.7721,723.2615" fill="none" id="SendBufferManager-to-SendBufferChunk" style="stroke:#000000;stroke-width:1;"/><polygon fill="#000000" points="654.4,729.25,658.9504,720.5154,654.7101,724.2596,650.9658,720.0193,654.4,729.25" style="stroke:#000000;stroke-width:1;"/><text fill="#000000" font-family="sans-serif" font-size="13" lengthAdjust="spacing" textLength="101.2769" x="659" y="674.5569">alloc slice (TLS)</text></g><!--link SendBufferChunk to SendBuffer--><g class="link" data-entity-1="SendBufferChunk" data-entity-2="SendBuffer" data-source-line="73" data-uid="lnk45" id="link_SendBufferChunk_SendBuffer"><path d="M650.98,776.25 C649,798.5 646.5257,826.284 644.5357,848.484" fill="none" id="SendBufferChunk-to-SendBuffer" style="stroke:#000000;stroke-width:1;"/><polygon fill="#000000" points="644,854.46,648.7876,845.8531,644.4464,849.48,640.8195,845.1388,644,854.46" style="stroke:#000000;stroke-width:1;"/></g><!--link Session to SendBuffer--><g class="link" data-entity-1="Session" data-entity-2="SendBuffer" data-source-line="74" data-uid="lnk46" id="link_Session_SendBuffer"><path d="M226.86,629.85 C256.15,669.8 322.68,753.29 398,799.78 C455.56,835.31 525.0874,854.64 576.7474,865.46" fill="none" id="Session-to-SendBuffer" style="stroke:#000000;stroke-width:1;"/><polygon fill="#000000" points="582.62,866.69,574.6311,860.93,577.7262,865.665,572.9911,868.7601,582.62,866.69" style="stroke:#000000;stroke-width:1;"/><text fill="#000000" font-family="sans-serif" font-size="13" lengthAdjust="spacing" textLength="154.4702" x="399" y="757.1969">queue &amp; WSASend (SG)</text></g><!--link ChatSession to RoomManager--><g class="link" data-entity-1="ChatSession" data-entity-2="RoomManager" data-source-line="77" data-uid="lnk47" id="link_ChatSession_RoomManager"><path d="M398.22,339.21 C432.89,359.51 479.3,386.44 484,387.89 C523.59,400.18 1103.9944,441.344 1310.6144,455.704" fill="none" id="ChatSession-to-RoomManager" style="stroke:#000000;stroke-width:1;"/><polygon fill="#000000" points="1316.6,456.12,1307.899,451.5056,1311.612,455.7733,1307.3443,459.4864,1316.6,456.12" style="stroke:#000000;stroke-width:1;"/><text fill="#000000" font-family="sans-serif" font-size="13" lengthAdjust="spacing" textLength="244.4165" x="485" y="383.9569">FindRoom / AddRoom / RemoveRoom</text></g><!--link RoomManager to Room--><g class="link" data-entity-1="RoomManager" data-entity-2="Room" data-source-line="78" data-uid="lnk48" id="link_RoomManager_Room"><path d="M1383.25,485.59 C1377.63,512.23 1369.5782,550.4291 1363.9682,577.0291" fill="none" id="RoomManager-to-Room" style="stroke:#000000;stroke-width:1;"/><polygon fill="#000000" points="1362.73,582.9,1368.5012,574.9192,1363.7618,578.0076,1360.6734,573.2683,1362.73,582.9" style="stroke:#000000;stroke-width:1;"/></g><!--link Room to Player--><g class="link" data-entity-1="Room" data-entity-2="Player" data-source-line="79" data-uid="lnk49" id="link_Room_Player"><path d="M1339.31,629.86 C1332.81,639.08 1326.33,650.21 1323,661.49 C1316.04,685.09 1325.3643,706.1229 1337.5543,724.1129" fill="none" id="Room-to-Player" style="stroke:#000000;stroke-width:1;"/><polygon fill="#000000" points="1340.92,729.08,1339.1829,719.3856,1338.1153,724.9408,1332.5601,723.8732,1340.92,729.08" style="stroke:#000000;stroke-width:1;"/></g><!--link Room to JobQueue--><g class="link" data-entity-1="Room" data-entity-2="JobQueue" data-source-line="80" data-uid="lnk50" id="link_Room_JobQueue"><path d="M1378.49,629.78 C1391.28,643.78 1408.09,662.19 1423,678.49 C1438.58,695.51 1452.1447,710.338 1465.4147,724.808" fill="none" id="Room-to-JobQueue" style="stroke:#000000;stroke-width:1;"/><polygon fill="#000000" points="1469.47,729.23,1466.335,719.8934,1466.0906,725.545,1460.439,725.3005,1469.47,729.23" style="stroke:#000000;stroke-width:1;"/><text fill="#000000" font-family="sans-serif" font-size="13" lengthAdjust="spacing" textLength="288.5454" x="1424" y="674.5569">per-room tasks (Enter/Leave/Broadcast/Log)</text></g><!--link Room to DBConnectionPool--><g class="link" data-entity-1="Room" data-entity-2="DBConnectionPool" data-source-line="83" data-uid="lnk51" id="link_Room_DBConnectionPool"><path d="M1317.38,625.26 C1294.91,634.66 1266.28,645.78 1240,653.49 C1222.6,658.59 1213.22,649.08 1200,661.49 C1181.58,678.78 1176.9944,702.4772 1175.9844,723.0372" fill="none" id="Room-to-DBConnectionPool" style="stroke:#000000;stroke-width:1;"/><polygon fill="#000000" points="1175.69,729.03,1180.1268,720.2371,1175.9353,724.036,1172.1364,719.8446,1175.69,729.03" style="stroke:#000000;stroke-width:1;"/><text fill="#000000" font-family="sans-serif" font-size="13" lengthAdjust="spacing" textLength="111.1919" x="1201" y="674.5569">LogChatToDB(...)</text></g><!--link DBConnectionPool to DBConnection--><g class="link" data-entity-1="DBConnectionPool" data-entity-2="DBConnection" data-source-line="84" data-uid="lnk52" id="link_DBConnectionPool_DBConnection"><path d="M1176,776.25 C1176,798.5 1176,826.26 1176,848.46" fill="none" id="DBConnectionPool-to-DBConnection" style="stroke:#000000;stroke-width:1;"/><polygon fill="#000000" points="1176,854.46,1180,845.46,1176,849.46,1172,845.46,1176,854.46" style="stroke:#000000;stroke-width:1;"/></g><!--link ClientPacketHandler to DBConnectionPool--><g class="link" data-entity-1="ClientPacketHandler" data-entity-2="DBConnectionPool" data-source-line="85" data-uid="lnk53" id="link_ClientPacketHandler_DBConnectionPool"><path d="M516.62,467.28 C657.34,475.12 918.9,495.36 1000,540.19 C1081.51,585.25 1138.1465,679.0505 1161.8565,723.7105" fill="none" id="ClientPacketHandler-to-DBConnectionPool" style="stroke:#000000;stroke-width:1;"/><polygon fill="#000000" points="1164.67,729.01,1163.9827,719.1851,1162.3254,724.5938,1156.9168,722.9365,1164.67,729.01" style="stroke:#000000;stroke-width:1;"/><text fill="#000000" font-family="sans-serif" font-size="13" lengthAdjust="spacing" textLength="133.9673" x="1118" y="610.9069">Pop/Push (login etc.)</text></g><!--link DBConnectionPool to MSSQL--><g class="link" data-entity-1="DBConnectionPool" data-entity-2="MSSQL" data-source-line="86" data-uid="lnk54" id="link_DBConnectionPool_MSSQL"><path d="M1130.45,776.17 C1113.05,784.27 1092.85,793.05 1074,799.78 C984.75,831.64 957.37,823.28 868,854.78 C862.99,856.55 863.3033,856.2899 858.2233,858.4199" fill="none" id="DBConnectionPool-to-MSSQL" style="stroke:#000000;stroke-width:1;"/><polygon fill="#000000" points="852.69,860.74,862.5366,860.9488,857.3011,858.8066,859.4432,853.571,852.69,860.74" style="stroke:#000000;stroke-width:1;"/><text fill="#000000" font-family="sans-serif" font-size="13" lengthAdjust="spacing" textLength="38.2383" x="1049" y="820.8469">ODBC</text></g><!--link ThreadManager to IocpCore--><g class="link" data-entity-1="ThreadManager" data-entity-2="IocpCore" data-source-line="89" data-uid="lnk55" id="link_ThreadManager_IocpCore"><path d="M771.23,339.34 C765.69,355.94 755.5,377.37 738,387.89 C709.57,404.99 171.7,383.32 141,395.89 C119.67,404.63 104.984,418.8455 92.694,434.0355" fill="none" id="ThreadManager-to-IocpCore" style="stroke:#000000;stroke-width:1;"/><polygon fill="#000000" points="88.92,438.7,97.6906,434.2193,92.065,434.8129,91.4713,429.1873,88.92,438.7" style="stroke:#000000;stroke-width:1;"/><text fill="#000000" font-family="sans-serif" font-size="13" lengthAdjust="spacing" textLength="201.8809" x="756" y="383.9569">worker threads (Dispatch loop)</text></g><!--SRC=[TLRBRkCs5DtpAuWKcDgBHFi0BU1NPjmwZaVo8DtIqeqjH2PLaaecBVhllIGbcOzO6v67vpvuBtaazLhpbabsfWTMlXwbw7Yr48sGz9S7-n0rCafnRWK7hkc_XD9vn7y-rHeCBcG5qc7p1ac8pQGKxpxq7pdL5L2bGOBG7oqeGdwblvc7hlxQh_BjR5EuERc4lLaqDRxL3MMAzcDICSqEJ06zUIoAxnkxPaSNZzlL_laf_tEz_TgxR347TaIJBUXt8N67nnkxAI_MfiRiE4ZhS9Y4b0BaMrs2PVJZb00ofer8I7ORyia14fBNecmNGZhUC8c3ArKBteUruv2mmog0zca14cLtOW7LcrybFZAELPOnluS_sxrBu1lZLJFOfJYUdh6rowV7sNeRjtKfpgpcIKjp8Sv-Jjuy9OwCg6WD- -ZDtJ1S_aCSldVGkRuC4p_X-O-7XrLUn1dFkvSNa2f9kG1UkJK_yGIzPhGuTVmrCh7ODOE86vHwjf_HZ2xdIRNn1YQ9B-SBmJcK6Xk-4wAnZcFmkab2ZxeWXHQbQEYaDQD3zp9rBUbnF-_yntQ_Vbp5MUSTr_KPaiJt9mciygiT8CxphNleypfV5NJIeVp0JrPgT5H1TXPLrm3bx0ngEd19BrWu_ttK4tfFzuiTMjbjOdLdPGcjNlqa8yFGXmkEz1oEPaKYbrckpRq1KoD5Ugs8Oonm0nhwwuUMMAOI9ovOOFH9919e5hsjn3j7vY1BWKWbgsHqU6jHby4zbL2-PGhFcPy-dInhrJ9TdgPae5vBAf0gBwnJ94zjnhLGt58zig5ymtiwgweiXxDuWsmk1QjAfhHfVoz4hfBk86Qqly9XRECoLJ1qxKOE9PzHZEde_Puga3LhwdyWmu-nWgicYJIWxLCBfkk7hcugh7pRV92K5XfRaK1JrZIYfAenlPtiDyMKn9nBwKVHy7T_WT7RtqODwHVwNCmCJYV5rwcffv5PPQff5JKjeIVKwEMXvfL1p7MfXf5hazLhdprOMz3LrAdsE1z46Xst86-bmJLJhtWQLnnFMhO1vlS_suYZJHhVH_nni99uSHTB7Bf5ejdGNYpdaxkxkob9EB7XrUv-udqdscpNgHETD0BpeQ3BQo7iRv4v3xXgTk24JP50uE8RP_wF4DMEUxcYj16YdVuF]--></g></svg>