<svg xmlns="http://www.w3.org/2000/svg" xmlns:xlink="http://www.w3.org/1999/xlink" contentStyleType="text/css" data-diagram-type="DESCRIPTION" height="871px" preserveAspectRatio="none" style="width:1220px;height:871px;background:#FFFFFF;" version="1.1" viewBox="0 0 1220 871" width="1220px" zoomAndPan="magnify"><title>Multiplayer Architecture (Photon PUN2 &#44592;&#48152;)</title><defs/><g><g class="title" data-source-line="1"><text fill="#000000" font-family="sans-serif" font-size="14" font-weight="bold" lengthAdjust="spacing" textLength="345.5929" x="430.289" y="22.9951">Multiplayer Architecture (Photon PUN2 &#44592;&#48152;)</text></g><!--cluster Lobby--><g class="cluster" data-entity="Lobby" data-source-line="6" data-uid="ent0004" id="cluster_Lobby"><rect fill="none" height="241.59" rx="2.5" ry="2.5" style="stroke:#181818;stroke-width:1;" width="297" x="273" y="182.0969"/><text fill="#000000" font-family="sans-serif" font-size="14" font-weight="bold" lengthAdjust="spacing" textLength="47.708" x="397.646" y="197.092">Lobby</text></g><!--cluster Photon Cloud / PUN--><g class="cluster" data-entity="Photon Cloud . PUN" data-source-line="12" data-uid="ent0008" id="cluster_Photon Cloud . PUN"><rect fill="none" height="251.59" rx="2.5" ry="2.5" style="stroke:#181818;stroke-width:1;" width="455" x="7" y="480.6869"/><text fill="#000000" font-family="sans-serif" font-size="14" font-weight="bold" lengthAdjust="spacing" textLength="153.8838" x="157.5581" y="495.682">Photon Cloud / PUN</text></g><!--cluster Gameplay--><g class="cluster" data-entity="Gameplay" data-source-line="18" data-uid="ent0012" id="cluster_Gameplay"><rect fill="none" height="539.19" rx="2.5" ry="2.5" style="stroke:#181818;stroke-width:1;" width="303" x="806" y="326.3869"/><text fill="#000000" font-family="sans-serif" font-size="14" font-weight="bold" lengthAdjust="spacing" textLength="78.415" x="918.2925" y="341.382">Gameplay</text></g><!--entity MainMenu--><g class="entity" data-entity="MainMenu" data-source-line="7" data-uid="ent0005" id="entity_MainMenu"><rect fill="#F1F1F1" height="46.2969" rx="2.5" ry="2.5" style="stroke:#181818;stroke-width:0.5;" width="111.8594" x="289.07" y="217.0969"/><rect fill="#F1F1F1" height="10" style="stroke:#181818;stroke-width:0.5;" width="15" x="380.9294" y="222.0969"/><rect fill="#F1F1F1" height="2" style="stroke:#181818;stroke-width:0.5;" width="4" x="378.9294" y="224.0969"/><rect fill="#F1F1F1" height="2" style="stroke:#181818;stroke-width:0.5;" width="4" x="378.9294" y="228.0969"/><text fill="#000000" font-family="sans-serif" font-size="14" lengthAdjust="spacing" textLength="71.8594" x="304.07" y="250.092">MainMenu</text></g><!--entity MultiSelect--><g class="entity" data-entity="MultiSelect" data-source-line="8" data-uid="ent0006" id="entity_MultiSelect"><rect fill="#F1F1F1" height="46.2969" rx="2.5" ry="2.5" style="stroke:#181818;stroke-width:0.5;" width="117.4102" x="436.29" y="217.0969"/><rect fill="#F1F1F1" height="10" style="stroke:#181818;stroke-width:0.5;" width="15" x="533.7002" y="222.0969"/><rect fill="#F1F1F1" height="2" style="stroke:#181818;stroke-width:0.5;" width="4" x="531.7002" y="224.0969"/><rect fill="#F1F1F1" height="2" style="stroke:#181818;stroke-width:0.5;" width="4" x="531.7002" y="228.0969"/><text fill="#000000" font-family="sans-serif" font-size="14" lengthAdjust="spacing" textLength="77.4102" x="451.29" y="250.092">MultiSelect</text></g><!--entity NetworkManager--><g class="entity" data-entity="NetworkManager" data-source-line="9" data-uid="ent0007" id="entity_NetworkManager"><rect fill="#F1F1F1" height="46.2969" rx="2.5" ry="2.5" style="stroke:#181818;stroke-width:0.5;" width="159.8203" x="289.09" y="361.3869"/><rect fill="#F1F1F1" height="10" style="stroke:#181818;stroke-width:0.5;" width="15" x="428.9103" y="366.3869"/><rect fill="#F1F1F1" height="2" style="stroke:#181818;stroke-width:0.5;" width="4" x="426.9103" y="368.3869"/><rect fill="#F1F1F1" height="2" style="stroke:#181818;stroke-width:0.5;" width="4" x="426.9103" y="372.3869"/><text fill="#000000" font-family="sans-serif" font-size="14" lengthAdjust="spacing" textLength="119.8203" x="304.09" y="394.382">NetworkManager</text></g><!--entity Room Management--><g class="entity" data-entity="Room Management" data-source-line="13" data-uid="ent0009" id="entity_Room Management"><rect fill="#F1F1F1" height="46.2969" rx="2.5" ry="2.5" style="stroke:#181818;stroke-width:0.5;" width="177.1699" x="31.42" y="523.6869"/><rect fill="#F1F1F1" height="10" style="stroke:#181818;stroke-width:0.5;" width="15" x="188.5899" y="528.6869"/><rect fill="#F1F1F1" height="2" style="stroke:#181818;stroke-width:0.5;" width="4" x="186.5899" y="530.6869"/><rect fill="#F1F1F1" height="2" style="stroke:#181818;stroke-width:0.5;" width="4" x="186.5899" y="534.6869"/><text fill="#000000" font-family="sans-serif" font-size="14" lengthAdjust="spacing" textLength="137.1699" x="46.42" y="556.682">Room Management</text></g><!--entity RPC / SerializeView--><g class="entity" data-entity="RPC . SerializeView" data-source-line="14" data-uid="ent0010" id="entity_RPC . SerializeView"><rect fill="#F1F1F1" height="46.2969" rx="2.5" ry="2.5" style="stroke:#181818;stroke-width:0.5;" width="174.5586" x="243.72" y="523.6869"/><rect fill="#F1F1F1" height="10" style="stroke:#181818;stroke-width:0.5;" width="15" x="398.2786" y="528.6869"/><rect fill="#F1F1F1" height="2" style="stroke:#181818;stroke-width:0.5;" width="4" x="396.2786" y="530.6869"/><rect fill="#F1F1F1" height="2" style="stroke:#181818;stroke-width:0.5;" width="4" x="396.2786" y="534.6869"/><text fill="#000000" font-family="sans-serif" font-size="14" lengthAdjust="spacing" textLength="134.5586" x="258.72" y="556.682">RPC / SerializeView</text></g><!--entity MasterClient Control--><g class="entity" data-entity="MasterClient Control" data-source-line="15" data-uid="ent0011" id="entity_MasterClient Control"><rect fill="#F1F1F1" height="46.2969" rx="2.5" ry="2.5" style="stroke:#181818;stroke-width:0.5;" width="183.7051" x="31.15" y="661.9869"/><rect fill="#F1F1F1" height="10" style="stroke:#181818;stroke-width:0.5;" width="15" x="194.8551" y="666.9869"/><rect fill="#F1F1F1" height="2" style="stroke:#181818;stroke-width:0.5;" width="4" x="192.8551" y="668.9869"/><rect fill="#F1F1F1" height="2" style="stroke:#181818;stroke-width:0.5;" width="4" x="192.8551" y="672.9869"/><text fill="#000000" font-family="sans-serif" font-size="14" lengthAdjust="spacing" textLength="143.7051" x="46.15" y="694.982">MasterClient Control</text></g><!--entity MultiGamePlayer--><g class="entity" data-entity="MultiGamePlayer" data-source-line="19" data-uid="ent0013" id="entity_MultiGamePlayer"><rect fill="#F1F1F1" height="46.2969" rx="2.5" ry="2.5" style="stroke:#181818;stroke-width:0.5;" width="159.4648" x="822.27" y="361.3869"/><rect fill="#F1F1F1" height="10" style="stroke:#181818;stroke-width:0.5;" width="15" x="961.7348" y="366.3869"/><rect fill="#F1F1F1" height="2" style="stroke:#181818;stroke-width:0.5;" width="4" x="959.7348" y="368.3869"/><rect fill="#F1F1F1" height="2" style="stroke:#181818;stroke-width:0.5;" width="4" x="959.7348" y="372.3869"/><text fill="#000000" font-family="sans-serif" font-size="14" lengthAdjust="spacing" textLength="119.4648" x="837.27" y="394.382">MultiGamePlayer</text></g><!--entity MultiMonster--><g class="entity" data-entity="MultiMonster" data-source-line="20" data-uid="ent0014" id="entity_MultiMonster"><rect fill="#F1F1F1" height="46.2969" rx="2.5" ry="2.5" style="stroke:#181818;stroke-width:0.5;" width="130.8906" x="821.55" y="661.9869"/><rect fill="#F1F1F1" height="10" style="stroke:#181818;stroke-width:0.5;" width="15" x="932.4406" y="666.9869"/><rect fill="#F1F1F1" height="2" style="stroke:#181818;stroke-width:0.5;" width="4" x="930.4406" y="668.9869"/><rect fill="#F1F1F1" height="2" style="stroke:#181818;stroke-width:0.5;" width="4" x="930.4406" y="672.9869"/><text fill="#000000" font-family="sans-serif" font-size="14" lengthAdjust="spacing" textLength="90.8906" x="836.55" y="694.982">MultiMonster</text></g><!--entity Arrow--><g class="entity" data-entity="Arrow" data-source-line="21" data-uid="ent0015" id="entity_Arrow"><rect fill="#F1F1F1" height="46.2969" rx="2.5" ry="2.5" style="stroke:#181818;stroke-width:0.5;" width="81.1045" x="836.45" y="523.6869"/><rect fill="#F1F1F1" height="10" style="stroke:#181818;stroke-width:0.5;" width="15" x="897.5545" y="528.6869"/><rect fill="#F1F1F1" height="2" style="stroke:#181818;stroke-width:0.5;" width="4" x="895.5545" y="530.6869"/><rect fill="#F1F1F1" height="2" style="stroke:#181818;stroke-width:0.5;" width="4" x="895.5545" y="534.6869"/><text fill="#000000" font-family="sans-serif" font-size="14" lengthAdjust="spacing" textLength="41.1045" x="851.45" y="556.682">Arrow</text></g><!--entity MonsterArrow--><g class="entity" data-entity="MonsterArrow" data-source-line="22" data-uid="ent0016" id="entity_MonsterArrow"><rect fill="#F1F1F1" height="46.2969" rx="2.5" ry="2.5" style="stroke:#181818;stroke-width:0.5;" width="137.7744" x="888.11" y="803.2769"/><rect fill="#F1F1F1" height="10" style="stroke:#181818;stroke-width:0.5;" width="15" x="1005.8844" y="808.2769"/><rect fill="#F1F1F1" height="2" style="stroke:#181818;stroke-width:0.5;" width="4" x="1003.8844" y="810.2769"/><rect fill="#F1F1F1" height="2" style="stroke:#181818;stroke-width:0.5;" width="4" x="1003.8844" y="814.2769"/><text fill="#000000" font-family="sans-serif" font-size="14" lengthAdjust="spacing" textLength="97.7744" x="903.11" y="836.272">MonsterArrow</text></g><!--entity P--><g class="entity" data-entity="P" data-source-line="3" data-uid="ent0002" id="entity_P"><ellipse cx="577.0027" cy="51.2969" fill="#F1F1F1" rx="8" ry="8" style="stroke:#181818;stroke-width:0.5;"/><path d="M577.0027,59.2969 L577.0027,86.2969 M564.0027,67.2969 L590.0027,67.2969 M577.0027,86.2969 L564.0027,101.2969 M577.0027,86.2969 L590.0027,101.2969" fill="none" style="stroke:#181818;stroke-width:0.5;"/><text fill="#000000" font-family="sans-serif" font-size="14" lengthAdjust="spacing" textLength="43.5654" x="555.22" y="115.792">Player</text></g><!--entity M--><g class="entity" data-entity="M" data-source-line="4" data-uid="ent0003" id="entity_M"><ellipse cx="1169.0004" cy="517.1869" fill="#F1F1F1" rx="8" ry="8" style="stroke:#181818;stroke-width:0.5;"/><path d="M1169.0004,525.1869 L1169.0004,552.1869 M1156.0004,533.1869 L1182.0004,533.1869 M1169.0004,552.1869 L1156.0004,567.1869 M1169.0004,552.1869 L1182.0004,567.1869" fill="none" style="stroke:#181818;stroke-width:0.5;"/><text fill="#000000" font-family="sans-serif" font-size="14" lengthAdjust="spacing" textLength="88.3408" x="1124.83" y="581.682">MasterClient</text></g><!--link P to MainMenu--><g class="link" data-entity-1="P" data-entity-2="MainMenu" data-source-line="25" data-uid="lnk17" id="link_P_MainMenu"><path d="M554.97,93.0469 C523.65,109.2169 464.97,140.9269 419,174.0969 C400.95,187.1069 386.5376,199.6143 372.4076,212.7943" fill="none" id="P-to-MainMenu" style="stroke:#181818;stroke-width:1;"/><polygon fill="#181818" points="368.02,216.8869,377.3297,213.673,371.6763,213.4764,371.873,207.823,368.02,216.8869" style="stroke:#181818;stroke-width:1;"/><text fill="#000000" font-family="sans-serif" font-size="13" lengthAdjust="spacing" textLength="51.1431" x="454" y="162.1638">UI Input</text></g><!--link MainMenu to NetworkManager--><g class="link" data-entity-1="MainMenu" data-entity-2="NetworkManager" data-source-line="26" data-uid="lnk18" id="link_MainMenu_NetworkManager"><path d="M348.8,263.7869 C353.3,290.4369 359.7335,328.5802 364.2135,355.1802" fill="none" id="MainMenu-to-NetworkManager" style="stroke:#181818;stroke-width:1;"/><polygon fill="#181818" points="365.21,361.0969,367.6597,351.5575,364.3796,356.1663,359.7708,352.8862,365.21,361.0969" style="stroke:#181818;stroke-width:1;"/><text fill="#000000" font-family="sans-serif" font-size="13" lengthAdjust="spacing" textLength="96.6121" x="358" y="306.4538">&#49440;&#53469;/&#48169; &#49373;&#49457;/&#52280;&#50668;</text></g><!--link NetworkManager to Photon Cloud / PUN--><g class="link" data-entity-1="NetworkManager" data-entity-2="Photon Cloud . PUN" data-source-line="27" data-uid="lnk19" id="link_NetworkManager_Photon Cloud . PUN"><path d="M304.28,408.0669 C277.06,420.9169 255.34,438.1269 273,456.6869 C285.35,469.6569 420.18,453.2969 434,464.6869 C437.4713,467.5481 440.395,470.9064 442.8529,474.5994 C444.0819,476.4459 442.4907,473.0197 443.497,475.0133" fill="none" id="NetworkManager-to-Photon Cloud / PUN" style="stroke:#181818;stroke-width:1;"/><polygon fill="#181818" points="446.2007,480.3696,445.716,470.5326,443.9476,475.906,438.5743,474.1376,446.2007,480.3696" style="stroke:#181818;stroke-width:1;"/><text fill="#000000" font-family="sans-serif" font-size="13" lengthAdjust="spacing" textLength="141.4393" x="274" y="452.7538">&#48169; &#51077;&#51109;/Ready &#49345;&#53468; &#51204;&#49569;</text></g><!--link Photon Cloud / PUN to MultiGamePlayer--><g class="link" data-entity-1="Photon Cloud . PUN" data-entity-2="MultiGamePlayer" data-source-line="28" data-uid="lnk20" id="link_Photon Cloud . PUN_MultiGamePlayer"><path d="M441.0949,480.4031 C441.1018,480.2219 441.1093,480.0408 441.1172,479.8597 C441.1331,479.4974 441.151,479.1354 441.1709,478.7736 C441.3302,475.8793 441.619,473.0001 442.0592,470.1616 C443.82,458.8075 448.0025,448.1044 456,439.6869 C464.75,430.4769 557.37,433.0069 570,431.6869 C656.38,422.6669 748.959,409.3842 816.089,399.1142" fill="none" id="Photon Cloud / PUN-to-MultiGamePlayer" style="stroke:#181818;stroke-width:1;"/><polygon fill="#181818" points="822.02,398.2069,812.5186,395.6139,817.0775,398.963,813.7284,403.5219,822.02,398.2069" style="stroke:#181818;stroke-width:1;"/><text fill="#000000" font-family="sans-serif" font-size="13" lengthAdjust="spacing" textLength="193.6807" x="457" y="452.7538">SerializeView (Position, HP &#46321;)</text></g><!--link MultiGamePlayer to Photon Cloud / PUN--><g class="link" data-entity-1="MultiGamePlayer" data-entity-2="Photon Cloud . PUN" data-source-line="33" data-uid="lnk24" id="link_MultiGamePlayer_Photon Cloud . PUN"><path d="M822.22,407.5769 C790.23,416.8569 753.16,428.1669 720,439.6869 C660.82,460.2519 595.4575,486.2869 544.335,507.4256 C518.7738,517.995 496.7725,527.3403 480.8841,534.1658 C476.912,535.8721 473.3219,537.421 470.1538,538.7922 C468.5697,539.4777 467.0911,540.1189 465.723,540.713 C465.039,541.0101 464.3825,541.2955 463.7544,541.5688 C463.4403,541.7054 463.1332,541.839 462.8333,541.9696 C462.6834,542.0349 468.036,539.7034 467.8897,539.7671" fill="none" id="MultiGamePlayer-to-Photon Cloud / PUN" style="stroke:#181818;stroke-width:1;"/><polygon fill="#181818" points="462.3888,542.1632,472.2374,542.2363,466.9729,540.1665,469.0427,534.9019,462.3888,542.1632" style="stroke:#181818;stroke-width:1;"/><text fill="#000000" font-family="sans-serif" font-size="13" lengthAdjust="spacing" textLength="154.8701" x="721" y="452.7538">RPC SyncArrowCreation</text></g><!--link Photon Cloud / PUN to MultiMonster--><g class="link" data-entity-1="Photon Cloud . PUN" data-entity-2="MultiMonster" data-source-line="29" data-uid="lnk21" id="link_Photon Cloud . PUN_MultiMonster"><path d="M462.0112,615.6854 C462.0749,615.8158 462.1389,615.946 462.2034,616.0759 C462.3323,616.3357 462.463,616.5946 462.5953,616.8525 C462.8599,617.3682 463.1313,617.8799 463.4097,618.3872 C463.9664,619.4019 464.5508,620.3992 465.1643,621.3766 C467.6181,625.2861 470.5363,628.8769 474,631.9869 C523.81,676.6969 711.8001,683.9709 815.2201,684.5909" fill="none" id="Photon Cloud / PUN-to-MultiMonster" style="stroke:#181818;stroke-width:1;"/><polygon fill="#181818" points="821.22,684.6269,812.2441,680.573,816.2201,684.5969,812.1962,688.5728,821.22,684.6269" style="stroke:#181818;stroke-width:1;"/><text fill="#000000" font-family="sans-serif" font-size="13" lengthAdjust="spacing" textLength="116.6826" x="475" y="628.0538">RPC/SerializeView</text></g><!--link MultiMonster to Photon Cloud / PUN--><g class="link" data-entity-1="MultiMonster" data-entity-2="Photon Cloud . PUN" data-source-line="36" data-uid="lnk26" id="link_MultiMonster_Photon Cloud . PUN"><path d="M821.48,671.8869 C775.96,662.6869 714.17,648.8069 661,631.9869 C614.395,617.2419 563.5225,596.6269 523.8725,579.4919 C504.0475,570.9244 487.0281,563.2269 474.7506,557.5681 C471.6813,556.1534 468.9082,554.8662 466.4619,553.7246 C465.2387,553.1538 464.0971,552.6194 463.041,552.1238 C462.777,551.9998 467.9485,554.4305 467.6952,554.3114" fill="none" id="MultiMonster-to-Photon Cloud / PUN" style="stroke:#181818;stroke-width:1;"/><polygon fill="#181818" points="462.265,551.7593,468.7088,559.2076,466.7902,553.8861,472.1117,551.9674,462.265,551.7593" style="stroke:#181818;stroke-width:1;"/><text fill="#000000" font-family="sans-serif" font-size="13" lengthAdjust="spacing" textLength="180.0005" x="662" y="628.0538">RPC_Attack, RPC_UpdateHp</text></g><!--link P to MultiGamePlayer--><g class="link" data-entity-1="P" data-entity-2="MultiGamePlayer" data-source-line="31" data-uid="lnk22" id="link_P_MultiGamePlayer"><path d="M599.08,102.4369 C657.66,156.7969 812.2721,300.2654 873.3021,356.9054" fill="none" id="P-to-MultiGamePlayer" style="stroke:#181818;stroke-width:1;"/><polygon fill="#181818" points="877.7,360.9869,873.8242,351.9327,874.0351,357.5856,868.3822,357.7965,877.7,360.9869" style="stroke:#181818;stroke-width:1;"/><text fill="#000000" font-family="sans-serif" font-size="13" lengthAdjust="spacing" textLength="136.872" x="772" y="244.8038">&#51060;&#46041;/&#51216;&#54532;/&#45824;&#49772;/&#44277;&#44201; &#51077;&#47141;</text></g><!--link MultiGamePlayer to Arrow--><g class="link" data-entity-1="MultiGamePlayer" data-entity-2="Arrow" data-source-line="32" data-uid="lnk23" id="link_MultiGamePlayer_Arrow"><path d="M894.82,407.9869 C891.99,417.6569 888.94,429.1369 887,439.6869 C881.74,468.2669 879.503,495.7261 878.303,517.3161" fill="none" id="MultiGamePlayer-to-Arrow" style="stroke:#181818;stroke-width:1;"/><polygon fill="#181818" points="877.97,523.3069,882.4633,514.5427,878.2475,518.3146,874.4756,514.0988,877.97,523.3069" style="stroke:#181818;stroke-width:1;"/><text fill="#000000" font-family="sans-serif" font-size="13" lengthAdjust="spacing" textLength="97.9718" x="888" y="452.7538">&#47196;&#52972; Instantiate</text></g><!--link M to MultiMonster--><g class="link" data-entity-1="M" data-entity-2="MultiMonster" data-source-line="35" data-uid="lnk25" id="link_M_MultiMonster"><path d="M1146.74,585.3369 C1135.09,601.9469 1119.4,620.3169 1101,631.9869 C1056.27,660.3469 1003.2483,672.4906 958.5383,678.4006" fill="none" id="M-to-MultiMonster" style="stroke:#181818;stroke-width:1;"/><polygon fill="#181818" points="952.59,679.1869,962.0366,681.973,957.5469,678.5316,960.9882,674.042,952.59,679.1869" style="stroke:#181818;stroke-width:1;"/><text fill="#000000" font-family="sans-serif" font-size="13" lengthAdjust="spacing" textLength="76.3136" x="1122" y="628.0538">AI Loop &#49892;&#54665;</text></g><!--link MultiMonster to MonsterArrow--><g class="link" data-entity-1="MultiMonster" data-entity-2="MonsterArrow" data-source-line="37" data-uid="lnk27" id="link_MultiMonster_MonsterArrow"><path d="M867.64,708.6869 C854.45,726.9369 841.46,752.8769 854,773.2769 C861.98,786.2569 869.0495,793.205 882.4295,800.665" fill="none" id="MultiMonster-to-MonsterArrow" style="stroke:#181818;stroke-width:1;"/><polygon fill="#181818" points="887.67,803.5869,881.7571,795.7105,883.3029,801.152,877.8614,802.6978,887.67,803.5869" style="stroke:#181818;stroke-width:1;"/><text fill="#000000" font-family="sans-serif" font-size="13" lengthAdjust="spacing" textLength="173.6528" x="855" y="769.3438">PhotonNetwork.Instantiate</text></g><!--link MonsterArrow to MultiGamePlayer--><g class="link" data-entity-1="MonsterArrow" data-entity-2="MultiGamePlayer" data-source-line="39" data-uid="lnk28" id="link_MonsterArrow_MultiGamePlayer"><path d="M1004.94,802.8169 C1016.15,795.1069 1026.66,785.3169 1033,773.2769 C1036.52,766.5969 1034.12,763.7569 1033,756.2769 C1024.46,699.1469 1004.28,688.9969 995,631.9869 C981.27,547.5969 1032.67,513.7669 990,439.6869 C982.39,426.4769 975.236,419.2178 962.256,411.2078" fill="none" id="MonsterArrow-to-MultiGamePlayer" style="stroke:#181818;stroke-width:1;"/><polygon fill="#181818" points="957.15,408.0569,962.7084,416.1873,961.405,410.6827,966.9097,409.3793,957.15,408.0569" style="stroke:#181818;stroke-width:1;"/><text fill="#000000" font-family="sans-serif" font-size="13" lengthAdjust="spacing" textLength="96.117" x="996" y="628.0538">&#52649;&#46028; &#49884; &#54588;&#54644; &#52376;&#47532;</text></g><!--link Arrow to MultiMonster--><g class="link" data-entity-1="Arrow" data-entity-2="MultiMonster" data-source-line="40" data-uid="lnk29" id="link_Arrow_MultiMonster"><path d="M863.99,570.3869 C855.85,587.3669 847.97,611.1769 854,631.9869 C857.04,642.4769 859.5247,647.9263 865.4647,656.6563" fill="none" id="Arrow-to-MultiMonster" style="stroke:#181818;stroke-width:1;"/><polygon fill="#181818" points="868.84,661.6169,867.0842,651.9258,866.0273,657.483,860.47,656.4261,868.84,661.6169" style="stroke:#181818;stroke-width:1;"/><text fill="#000000" font-family="sans-serif" font-size="13" lengthAdjust="spacing" textLength="96.117" x="855" y="628.0538">&#52649;&#46028; &#49884; &#54588;&#54644; &#50836;&#52397;</text></g><!--SRC=[XLFHQXD157sVhxZiauNM1H_x88Gys42tB0tnLQQReHswcLaciuGeWf8e50iLZBLAKb9eXKA4D5Ofw1TbP__1cTqGCvjKtvPxppdtdZDt9PKX0IyE9Or2t2O2IY8ue984CXO47lW7N786Vctd4KplniduR0qX74WkmC_nk0d-hEBXfYIY75B2fAbx20ajXDc-dh7Dz_RQy0811BmHSMOm7gRC8oosYsQPAWarqwhl4DdYuj333EyJWLukYZkpFSiXZ-lWcdsTmYndb_C6vEo6BZY5hb_Ml2eH58VqENbAIQk0iDoLEPE2XqvXZIUuGKoEnU6P9zFCGrlkUPmPTQjH4eAtR6YEoXjwiWyR6u_dAS8cr2fGOL4iqRnc07Po6gQwmxGpS9FnDQZEG7LlN3M-Kvz6g80qv9NHRaB6FN-Zpg_SNOBhRItqEktqGGsxwkq5MidAbhMJq4fMvlhYU9DAojawRFcGVBXP-u_MB1Cjf9_GjSJc0ItDL8FRvEIpguRlqrxNJOvVgQEHE_t-Oph9N2N3ArGa6Q4iU6F-egz-ZNJKJVtmac99LiBlYSwSMhNDWaojB0WsTX7oLdagLVIFmoDGxoxJqoDaTVyzubb9IXmShcVVjQYkbzoAbWKMJqeJSxdP6JnSD8Wiv3sn_hnEJexridr8Ux_JZxUW9cV9rn4gaFxwMy7uqbEJRty0]--></g></svg>