<svg xmlns="http://www.w3.org/2000/svg" xmlns:xlink="http://www.w3.org/1999/xlink" contentStyleType="text/css" data-diagram-type="DESCRIPTION" height="495px" preserveAspectRatio="none" style="width:1437px;height:495px;background:#FFFFFF;" version="1.1" viewBox="0 0 1437 495" width="1437px" zoomAndPan="magnify"><title>Multiplayer Component Diagram</title><defs/><g><g class="title" data-source-line="1"><text fill="#000000" font-family="sans-serif" font-size="14" font-weight="bold" lengthAdjust="spacing" textLength="256.7988" x="583.1006" y="22.9951">Multiplayer Component Diagram</text></g><!--cluster Lobby--><g class="cluster" data-entity="Lobby" data-source-line="3" data-uid="ent0002" id="cluster_Lobby"><path d="M439.5,43.2969 L488.208,43.2969 A3.75,3.75 0 0 1 490.708,45.7969 L497.708,65.5938 L731.5,65.5938 A2.5,2.5 0 0 1 734,68.0938 L734,268.3969 A2.5,2.5 0 0 1 731.5,270.8969 L439.5,270.8969 A2.5,2.5 0 0 1 437,268.3969 L437,45.7969 A2.5,2.5 0 0 1 439.5,43.2969" fill="none" style="stroke:#000000;stroke-width:1.5;"/><line style="stroke:#000000;stroke-width:1.5;" x1="437" x2="497.708" y1="65.5938" y2="65.5938"/><text fill="#000000" font-family="sans-serif" font-size="14" font-weight="bold" lengthAdjust="spacing" textLength="47.708" x="441" y="58.292">Lobby</text></g><!--cluster Player--><g class="cluster" data-entity="Player" data-source-line="9" data-uid="ent0006" id="cluster_Player"><path d="M8.5,173.5969 L59.5322,173.5969 A3.75,3.75 0 0 1 62.0322,176.0969 L69.0322,195.8938 L410.5,195.8938 A2.5,2.5 0 0 1 413,198.3938 L413,377.6869 A2.5,2.5 0 0 1 410.5,380.1869 L8.5,380.1869 A2.5,2.5 0 0 1 6,377.6869 L6,176.0969 A2.5,2.5 0 0 1 8.5,173.5969" fill="none" style="stroke:#000000;stroke-width:1.5;"/><line style="stroke:#000000;stroke-width:1.5;" x1="6" x2="69.0322" y1="195.8938" y2="195.8938"/><text fill="#000000" font-family="sans-serif" font-size="14" font-weight="bold" lengthAdjust="spacing" textLength="50.0322" x="10" y="188.592">Player</text></g><!--cluster Monster--><g class="cluster" data-entity="Monster" data-source-line="15" data-uid="ent0010" id="cluster_Monster"><path d="M760.5,43.2969 L826.4414,43.2969 A3.75,3.75 0 0 1 828.9414,45.7969 L835.9414,65.5938 L1148.5,65.5938 A2.5,2.5 0 0 1 1151,68.0938 L1151,377.6869 A2.5,2.5 0 0 1 1148.5,380.1869 L760.5,380.1869 A2.5,2.5 0 0 1 758,377.6869 L758,45.7969 A2.5,2.5 0 0 1 760.5,43.2969" fill="none" style="stroke:#000000;stroke-width:1.5;"/><line style="stroke:#000000;stroke-width:1.5;" x1="758" x2="835.9414" y1="65.5938" y2="65.5938"/><text fill="#000000" font-family="sans-serif" font-size="14" font-weight="bold" lengthAdjust="spacing" textLength="64.9414" x="762" y="58.292">Monster</text></g><!--cluster System--><g class="cluster" data-entity="System" data-source-line="23" data-uid="ent0016" id="cluster_System"><path d="M1177.5,43.2969 L1236.8174,43.2969 A3.75,3.75 0 0 1 1239.3174,45.7969 L1246.3174,65.5938 L1427.5,65.5938 A2.5,2.5 0 0 1 1430,68.0938 L1430,138.0969 A2.5,2.5 0 0 1 1427.5,140.5969 L1177.5,140.5969 A2.5,2.5 0 0 1 1175,138.0969 L1175,45.7969 A2.5,2.5 0 0 1 1177.5,43.2969" fill="none" style="stroke:#000000;stroke-width:1.5;"/><line style="stroke:#000000;stroke-width:1.5;" x1="1175" x2="1246.3174" y1="65.5938" y2="65.5938"/><text fill="#000000" font-family="sans-serif" font-size="14" font-weight="bold" lengthAdjust="spacing" textLength="58.3174" x="1179" y="58.292">System</text></g><!--entity MainMenu--><g class="entity" data-entity="MainMenu" data-source-line="4" data-uid="ent0003" id="entity_MainMenu"><rect fill="#F1F1F1" height="46.2969" rx="2.5" ry="2.5" style="stroke:#181818;stroke-width:0.5;" width="111.8594" x="453.07" y="78.2969"/><rect fill="#F1F1F1" height="10" style="stroke:#181818;stroke-width:0.5;" width="15" x="544.9294" y="83.2969"/><rect fill="#F1F1F1" height="2" style="stroke:#181818;stroke-width:0.5;" width="4" x="542.9294" y="85.2969"/><rect fill="#F1F1F1" height="2" style="stroke:#181818;stroke-width:0.5;" width="4" x="542.9294" y="89.2969"/><text fill="#000000" font-family="sans-serif" font-size="14" lengthAdjust="spacing" textLength="71.8594" x="468.07" y="111.292">MainMenu</text></g><!--entity MultiSelect--><g class="entity" data-entity="MultiSelect" data-source-line="5" data-uid="ent0004" id="entity_MultiSelect"><rect fill="#F1F1F1" height="46.2969" rx="2.5" ry="2.5" style="stroke:#181818;stroke-width:0.5;" width="117.4102" x="600.29" y="78.2969"/><rect fill="#F1F1F1" height="10" style="stroke:#181818;stroke-width:0.5;" width="15" x="697.7002" y="83.2969"/><rect fill="#F1F1F1" height="2" style="stroke:#181818;stroke-width:0.5;" width="4" x="695.7002" y="85.2969"/><rect fill="#F1F1F1" height="2" style="stroke:#181818;stroke-width:0.5;" width="4" x="695.7002" y="89.2969"/><text fill="#000000" font-family="sans-serif" font-size="14" lengthAdjust="spacing" textLength="77.4102" x="615.29" y="111.292">MultiSelect</text></g><!--entity NetworkManager--><g class="entity" data-entity="NetworkManager" data-source-line="6" data-uid="ent0005" id="entity_NetworkManager"><rect fill="#F1F1F1" height="46.2969" rx="2.5" ry="2.5" style="stroke:#181818;stroke-width:0.5;" width="159.8203" x="505.09" y="208.5969"/><rect fill="#F1F1F1" height="10" style="stroke:#181818;stroke-width:0.5;" width="15" x="644.9103" y="213.5969"/><rect fill="#F1F1F1" height="2" style="stroke:#181818;stroke-width:0.5;" width="4" x="642.9103" y="215.5969"/><rect fill="#F1F1F1" height="2" style="stroke:#181818;stroke-width:0.5;" width="4" x="642.9103" y="219.5969"/><text fill="#000000" font-family="sans-serif" font-size="14" lengthAdjust="spacing" textLength="119.8203" x="520.09" y="241.592">NetworkManager</text></g><!--entity MultiGamePlayer--><g class="entity" data-entity="MultiGamePlayer" data-source-line="10" data-uid="ent0007" id="entity_MultiGamePlayer"><rect fill="#F1F1F1" height="46.2969" rx="2.5" ry="2.5" style="stroke:#181818;stroke-width:0.5;" width="159.4648" x="22.27" y="208.5969"/><rect fill="#F1F1F1" height="10" style="stroke:#181818;stroke-width:0.5;" width="15" x="161.7348" y="213.5969"/><rect fill="#F1F1F1" height="2" style="stroke:#181818;stroke-width:0.5;" width="4" x="159.7348" y="215.5969"/><rect fill="#F1F1F1" height="2" style="stroke:#181818;stroke-width:0.5;" width="4" x="159.7348" y="219.5969"/><text fill="#000000" font-family="sans-serif" font-size="14" lengthAdjust="spacing" textLength="119.4648" x="37.27" y="241.592">MultiGamePlayer</text></g><!--entity MultiCamaraControl--><g class="entity" data-entity="MultiCamaraControl" data-source-line="11" data-uid="ent0008" id="entity_MultiCamaraControl"><rect fill="#F1F1F1" height="46.2969" rx="2.5" ry="2.5" style="stroke:#181818;stroke-width:0.5;" width="180.041" x="216.98" y="208.5969"/><rect fill="#F1F1F1" height="10" style="stroke:#181818;stroke-width:0.5;" width="15" x="377.021" y="213.5969"/><rect fill="#F1F1F1" height="2" style="stroke:#181818;stroke-width:0.5;" width="4" x="375.021" y="215.5969"/><rect fill="#F1F1F1" height="2" style="stroke:#181818;stroke-width:0.5;" width="4" x="375.021" y="219.5969"/><text fill="#000000" font-family="sans-serif" font-size="14" lengthAdjust="spacing" textLength="140.041" x="231.98" y="241.592">MultiCamaraControl</text></g><!--entity Arrow--><g class="entity" data-entity="Arrow" data-source-line="12" data-uid="ent0009" id="entity_Arrow"><rect fill="#F1F1F1" height="46.2969" rx="2.5" ry="2.5" style="stroke:#181818;stroke-width:0.5;" width="81.1045" x="61.45" y="317.8969"/><rect fill="#F1F1F1" height="10" style="stroke:#181818;stroke-width:0.5;" width="15" x="122.5545" y="322.8969"/><rect fill="#F1F1F1" height="2" style="stroke:#181818;stroke-width:0.5;" width="4" x="120.5545" y="324.8969"/><rect fill="#F1F1F1" height="2" style="stroke:#181818;stroke-width:0.5;" width="4" x="120.5545" y="328.8969"/><text fill="#000000" font-family="sans-serif" font-size="14" lengthAdjust="spacing" textLength="41.1045" x="76.45" y="350.892">Arrow</text></g><!--entity MultiMonster--><g class="entity" data-entity="MultiMonster" data-source-line="16" data-uid="ent0011" id="entity_MultiMonster"><rect fill="#F1F1F1" height="46.2969" rx="2.5" ry="2.5" style="stroke:#181818;stroke-width:0.5;" width="130.8906" x="972.55" y="208.5969"/><rect fill="#F1F1F1" height="10" style="stroke:#181818;stroke-width:0.5;" width="15" x="1083.4406" y="213.5969"/><rect fill="#F1F1F1" height="2" style="stroke:#181818;stroke-width:0.5;" width="4" x="1081.4406" y="215.5969"/><rect fill="#F1F1F1" height="2" style="stroke:#181818;stroke-width:0.5;" width="4" x="1081.4406" y="219.5969"/><text fill="#000000" font-family="sans-serif" font-size="14" lengthAdjust="spacing" textLength="90.8906" x="987.55" y="241.592">MultiMonster</text></g><!--entity MultiBossMonster--><g class="entity" data-entity="MultiBossMonster" data-source-line="17" data-uid="ent0012" id="entity_MultiBossMonster"><rect fill="#F1F1F1" height="46.2969" rx="2.5" ry="2.5" style="stroke:#181818;stroke-width:0.5;" width="163.6484" x="774.18" y="78.2969"/><rect fill="#F1F1F1" height="10" style="stroke:#181818;stroke-width:0.5;" width="15" x="917.8284" y="83.2969"/><rect fill="#F1F1F1" height="2" style="stroke:#181818;stroke-width:0.5;" width="4" x="915.8284" y="85.2969"/><rect fill="#F1F1F1" height="2" style="stroke:#181818;stroke-width:0.5;" width="4" x="915.8284" y="89.2969"/><text fill="#000000" font-family="sans-serif" font-size="14" lengthAdjust="spacing" textLength="123.6484" x="789.18" y="111.292">MultiBossMonster</text></g><!--entity SplitMultiMonster--><g class="entity" data-entity="SplitMultiMonster" data-source-line="18" data-uid="ent0013" id="entity_SplitMultiMonster"><rect fill="#F1F1F1" height="46.2969" rx="2.5" ry="2.5" style="stroke:#181818;stroke-width:0.5;" width="161.9326" x="973.03" y="78.2969"/><rect fill="#F1F1F1" height="10" style="stroke:#181818;stroke-width:0.5;" width="15" x="1114.9626" y="83.2969"/><rect fill="#F1F1F1" height="2" style="stroke:#181818;stroke-width:0.5;" width="4" x="1112.9626" y="85.2969"/><rect fill="#F1F1F1" height="2" style="stroke:#181818;stroke-width:0.5;" width="4" x="1112.9626" y="89.2969"/><text fill="#000000" font-family="sans-serif" font-size="14" lengthAdjust="spacing" textLength="121.9326" x="988.03" y="111.292">SplitMultiMonster</text></g><!--entity MultiMonsterArrow--><g class="entity" data-entity="MultiMonsterArrow" data-source-line="19" data-uid="ent0014" id="entity_MultiMonsterArrow"><rect fill="#F1F1F1" height="46.2969" rx="2.5" ry="2.5" style="stroke:#181818;stroke-width:0.5;" width="171.9951" x="952" y="317.8969"/><rect fill="#F1F1F1" height="10" style="stroke:#181818;stroke-width:0.5;" width="15" x="1103.9951" y="322.8969"/><rect fill="#F1F1F1" height="2" style="stroke:#181818;stroke-width:0.5;" width="4" x="1101.9951" y="324.8969"/><rect fill="#F1F1F1" height="2" style="stroke:#181818;stroke-width:0.5;" width="4" x="1101.9951" y="328.8969"/><text fill="#000000" font-family="sans-serif" font-size="14" lengthAdjust="spacing" textLength="131.9951" x="967" y="350.892">MultiMonsterArrow</text></g><!--entity MultiBossHand--><g class="entity" data-entity="MultiBossHand" data-source-line="20" data-uid="ent0015" id="entity_MultiBossHand"><rect fill="#F1F1F1" height="46.2969" rx="2.5" ry="2.5" style="stroke:#181818;stroke-width:0.5;" width="143.8447" x="784.08" y="208.5969"/><rect fill="#F1F1F1" height="10" style="stroke:#181818;stroke-width:0.5;" width="15" x="907.9247" y="213.5969"/><rect fill="#F1F1F1" height="2" style="stroke:#181818;stroke-width:0.5;" width="4" x="905.9247" y="215.5969"/><rect fill="#F1F1F1" height="2" style="stroke:#181818;stroke-width:0.5;" width="4" x="905.9247" y="219.5969"/><text fill="#000000" font-family="sans-serif" font-size="14" lengthAdjust="spacing" textLength="103.8447" x="799.08" y="241.592">MultiBossHand</text></g><!--entity Singleton--><g class="entity" data-entity="Singleton" data-source-line="24" data-uid="ent0017" id="entity_Singleton"><rect fill="#F1F1F1" height="46.2969" rx="2.5" ry="2.5" style="stroke:#181818;stroke-width:0.5;" width="105.9668" x="1191.02" y="78.2969"/><rect fill="#F1F1F1" height="10" style="stroke:#181818;stroke-width:0.5;" width="15" x="1276.9868" y="83.2969"/><rect fill="#F1F1F1" height="2" style="stroke:#181818;stroke-width:0.5;" width="4" x="1274.9868" y="85.2969"/><rect fill="#F1F1F1" height="2" style="stroke:#181818;stroke-width:0.5;" width="4" x="1274.9868" y="89.2969"/><text fill="#000000" font-family="sans-serif" font-size="14" lengthAdjust="spacing" textLength="65.9668" x="1206.02" y="111.292">Singleton</text></g><!--entity ENUM--><g class="entity" data-entity="ENUM" data-source-line="25" data-uid="ent0018" id="entity_ENUM"><rect fill="#F1F1F1" height="46.2969" rx="2.5" ry="2.5" style="stroke:#181818;stroke-width:0.5;" width="81.6445" x="1332.18" y="78.2969"/><rect fill="#F1F1F1" height="10" style="stroke:#181818;stroke-width:0.5;" width="15" x="1393.8245" y="83.2969"/><rect fill="#F1F1F1" height="2" style="stroke:#181818;stroke-width:0.5;" width="4" x="1391.8245" y="85.2969"/><rect fill="#F1F1F1" height="2" style="stroke:#181818;stroke-width:0.5;" width="4" x="1391.8245" y="89.2969"/><text fill="#000000" font-family="sans-serif" font-size="14" lengthAdjust="spacing" textLength="41.6445" x="1347.18" y="111.292">ENUM</text></g><!--entity Photon Cloud--><g class="entity" data-entity="Photon Cloud" data-source-line="28" data-uid="ent0019" id="entity_Photon Cloud"><rect fill="#F1F1F1" height="46.2969" rx="2.5" ry="2.5" style="stroke:#181818;stroke-width:0.5;" width="133.249" x="518.38" y="317.8969"/><rect fill="#F1F1F1" height="10" style="stroke:#181818;stroke-width:0.5;" width="15" x="631.629" y="322.8969"/><rect fill="#F1F1F1" height="2" style="stroke:#181818;stroke-width:0.5;" width="4" x="629.629" y="324.8969"/><rect fill="#F1F1F1" height="2" style="stroke:#181818;stroke-width:0.5;" width="4" x="629.629" y="328.8969"/><text fill="#000000" font-family="sans-serif" font-size="14" lengthAdjust="spacing" textLength="93.249" x="533.38" y="350.892">Photon Cloud</text></g><!--entity SerializeView/RPC--><g class="entity" data-entity="SerializeView.RPC" data-source-line="41" data-uid="ent0029" id="entity_SerializeView.RPC"><rect fill="#F1F1F1" height="46.2969" rx="2.5" ry="2.5" style="stroke:#181818;stroke-width:0.5;" width="165.6582" x="502.17" y="443.1869"/><rect fill="#F1F1F1" height="10" style="stroke:#181818;stroke-width:0.5;" width="15" x="647.8282" y="448.1869"/><rect fill="#F1F1F1" height="2" style="stroke:#181818;stroke-width:0.5;" width="4" x="645.8282" y="450.1869"/><rect fill="#F1F1F1" height="2" style="stroke:#181818;stroke-width:0.5;" width="4" x="645.8282" y="454.1869"/><text fill="#000000" font-family="sans-serif" font-size="14" lengthAdjust="spacing" textLength="125.6582" x="517.17" y="476.182">SerializeView/RPC</text></g><!--link NetworkManager to Photon Cloud--><g class="link" data-entity-1="NetworkManager" data-entity-2="Photon Cloud" data-source-line="28" data-uid="lnk20" id="link_NetworkManager_Photon Cloud"><path d="M585,255.2369 C585,273.5469 585,293.2769 585,311.5769" fill="none" id="NetworkManager-to-Photon Cloud" style="stroke:#181818;stroke-width:1;"/><polygon fill="#181818" points="585,317.5769,589,308.5769,585,312.5769,581,308.5769,585,317.5769" style="stroke:#181818;stroke-width:1;"/></g><!--link MainMenu to NetworkManager--><g class="link" data-entity-1="MainMenu" data-entity-2="NetworkManager" data-source-line="29" data-uid="lnk21" id="link_MainMenu_NetworkManager"><path d="M522.41,125.0869 C536.3,148.5369 554.8217,179.8048 568.6617,203.1648" fill="none" id="MainMenu-to-NetworkManager" style="stroke:#181818;stroke-width:1;"/><polygon fill="#181818" points="571.72,208.3269,570.5739,198.5449,569.1714,204.0252,563.6911,202.6227,571.72,208.3269" style="stroke:#181818;stroke-width:1;"/></g><!--link MultiSelect to NetworkManager--><g class="link" data-entity-1="MultiSelect" data-entity-2="NetworkManager" data-source-line="30" data-uid="lnk22" id="link_MultiSelect_NetworkManager"><path d="M645.94,125.0869 C632.41,148.5369 614.4088,179.7701 600.9288,203.1301" fill="none" id="MultiSelect-to-NetworkManager" style="stroke:#181818;stroke-width:1;"/><polygon fill="#181818" points="597.93,208.3269,605.8928,202.5309,600.429,203.9962,598.9637,198.5324,597.93,208.3269" style="stroke:#181818;stroke-width:1;"/></g><!--link MultiGamePlayer to Arrow--><g class="link" data-entity-1="MultiGamePlayer" data-entity-2="Arrow" data-source-line="32" data-uid="lnk23" id="link_MultiGamePlayer_Arrow"><path d="M102,255.2369 C102,273.5469 102,293.2769 102,311.5769" fill="none" id="MultiGamePlayer-to-Arrow" style="stroke:#181818;stroke-width:1;"/><polygon fill="#181818" points="102,317.5769,106,308.5769,102,312.5769,98,308.5769,102,317.5769" style="stroke:#181818;stroke-width:1;"/></g><!--link MultiGamePlayer to Photon Cloud--><g class="link" data-entity-1="MultiGamePlayer" data-entity-2="Photon Cloud" data-source-line="33" data-uid="lnk24" id="link_MultiGamePlayer_Photon Cloud"><path d="M142.49,255.2069 C159.49,263.7869 179.76,272.9269 199,278.8969 C257.25,296.9469 418.0482,319.0378 512.2182,331.0478" fill="none" id="MultiGamePlayer-to-Photon Cloud" style="stroke:#181818;stroke-width:1;"/><polygon fill="#181818" points="518.17,331.8069,509.7484,326.7004,513.2102,331.1743,508.7363,334.6361,518.17,331.8069" style="stroke:#181818;stroke-width:1;"/></g><!--link MultiMonster to MultiMonsterArrow--><g class="link" data-entity-1="MultiMonster" data-entity-2="MultiMonsterArrow" data-source-line="35" data-uid="lnk25" id="link_MultiMonster_MultiMonsterArrow"><path d="M1038,255.2369 C1038,273.5469 1038,293.2769 1038,311.5769" fill="none" id="MultiMonster-to-MultiMonsterArrow" style="stroke:#181818;stroke-width:1;"/><polygon fill="#181818" points="1038,317.5769,1042,308.5769,1038,312.5769,1034,308.5769,1038,317.5769" style="stroke:#181818;stroke-width:1;"/></g><!--link MultiMonster to Photon Cloud--><g class="link" data-entity-1="MultiMonster" data-entity-2="Photon Cloud" data-source-line="36" data-uid="lnk26" id="link_MultiMonster_Photon Cloud"><path d="M998.8,255.3869 C982.6,263.8869 963.34,272.9269 945,278.8969 C891.72,296.2169 746.343,317.9416 657.763,330.2416" fill="none" id="MultiMonster-to-Photon Cloud" style="stroke:#181818;stroke-width:1;"/><polygon fill="#181818" points="651.82,331.0669,661.2846,333.791,656.7725,330.3792,660.1843,325.867,651.82,331.0669" style="stroke:#181818;stroke-width:1;"/></g><!--link MultiBossMonster to MultiBossHand--><g class="link" data-entity-1="MultiBossMonster" data-entity-2="MultiBossHand" data-source-line="38" data-uid="lnk27" id="link_MultiBossMonster_MultiBossHand"><path d="M856,125.0869 C856,148.5369 856,178.9669 856,202.3269" fill="none" id="MultiBossMonster-to-MultiBossHand" style="stroke:#181818;stroke-width:1;"/><polygon fill="#181818" points="856,208.3269,860,199.3269,856,203.3269,852,199.3269,856,208.3269" style="stroke:#181818;stroke-width:1;"/></g><!--link SplitMultiMonster to MultiMonster--><g class="link" data-entity-1="SplitMultiMonster" data-entity-2="MultiMonster" data-source-line="39" data-uid="lnk28" id="link_SplitMultiMonster_MultiMonster"><path d="M1051.18,125.0869 C1048.25,148.5369 1044.4517,179.0129 1041.5417,202.3729" fill="none" id="SplitMultiMonster-to-MultiMonster" style="stroke:#181818;stroke-width:1;"/><polygon fill="#181818" points="1040.8,208.3269,1045.8819,199.8904,1041.4181,203.3652,1037.9432,198.9014,1040.8,208.3269" style="stroke:#181818;stroke-width:1;"/></g><!--link Photon Cloud to SerializeView/RPC--><g class="link" data-entity-1="Photon Cloud" data-entity-2="SerializeView.RPC" data-source-line="41" data-uid="lnk30" id="link_Photon Cloud_SerializeView.RPC"><path d="M585,364.6569 C585,386.9069 585,414.6669 585,436.8669" fill="none" id="Photon Cloud-to-SerializeView/RPC" style="stroke:#181818;stroke-width:1;stroke-dasharray:7,7;"/><polygon fill="#181818" points="585,442.8669,589,433.8669,585,437.8669,581,433.8669,585,442.8669" style="stroke:#181818;stroke-width:1;"/><text fill="#000000" font-family="sans-serif" font-size="13" lengthAdjust="spacing" textLength="63.9324" x="586" y="409.2538">&#46041;&#44592;&#54868; &#52292;&#45328;</text></g><!--SRC=[TP6nJiCm54LtVyNxWPQT0Ga2WW5N4H4iLORNybIiEdRaE8f2nTOT1fR-1Mny4uL_88sZ9cxD-AxlEzU-ji9A0bvAAtA9DHc8T9PhHSh2fS25mOon7ETBN13SwjciXXK3c78KYfCgqtROhISaQMxRUKAsqcR9KJLR9cKlFI9s8QlzsZLcvCGU5M661YEjhD6obS-DqPK7ubeLrYDrIe-vq4Kn59DS2XksTa8NCmJSe7hqWfEwSMOkDn5g8SbgrUvSJUvvQpqi04QZCvZ6JxfnGYHrsH3x1jtfOMTUgM4BEshG-RfN_7FgNuFvtJbBe9AGBKWQbZwWzLK6lk4uTOVpy30UDvQ4Z40fdkb1K7Lo5qSfdCBsTVFzzV6xUOUVp_Ls_VO7]--></g></svg>