<svg xmlns="http://www.w3.org/2000/svg" xmlns:xlink="http://www.w3.org/1999/xlink" contentStyleType="text/css" data-diagram-type="DESCRIPTION" height="852px" preserveAspectRatio="none" style="width:1754px;height:852px;background:#FFFFFF;" version="1.1" viewBox="0 0 1754 852" width="1754px" zoomAndPan="magnify"><title>Unity 2D Farm RPG &#8212; Component Diagram</title><defs/><g><g class="title" data-source-line="2"><text fill="#000000" font-family="sans-serif" font-size="14" font-weight="bold" lengthAdjust="spacing" textLength="336.6631" x="701.6685" y="22.9951">Unity 2D Farm RPG &#8212; Component Diagram</text></g><!--cluster Core Systems--><g class="cluster" data-entity="Core Systems" data-source-line="11" data-uid="ent0002" id="cluster_Core Systems"><path d="M8.5,43.2969 L117.3164,43.2969 A3.75,3.75 0 0 1 119.8164,45.7969 L126.8164,65.5938 L201.5,65.5938 A2.5,2.5 0 0 1 204,68.0938 L204,380.6869 A2.5,2.5 0 0 1 201.5,383.1869 L8.5,383.1869 A2.5,2.5 0 0 1 6,380.6869 L6,45.7969 A2.5,2.5 0 0 1 8.5,43.2969" fill="none" style="stroke:#000000;stroke-width:1.5;"/><line style="stroke:#000000;stroke-width:1.5;" x1="6" x2="126.8164" y1="65.5938" y2="65.5938"/><text fill="#000000" font-family="sans-serif" font-size="14" font-weight="bold" lengthAdjust="spacing" textLength="107.8164" x="10" y="58.292">Core Systems</text></g><!--cluster Player Control--><g class="cluster" data-entity="Player Control" data-source-line="17" data-uid="ent0006" id="cluster_Player Control"><path d="M998.5,287.8869 L1112.2793,287.8869 A3.75,3.75 0 0 1 1114.7793,290.3869 L1121.7793,310.1838 L1389.5,310.1838 A2.5,2.5 0 0 1 1392,312.6838 L1392,508.9869 A2.5,2.5 0 0 1 1389.5,511.4869 L998.5,511.4869 A2.5,2.5 0 0 1 996,508.9869 L996,290.3869 A2.5,2.5 0 0 1 998.5,287.8869" fill="none" style="stroke:#000000;stroke-width:1.5;"/><line style="stroke:#000000;stroke-width:1.5;" x1="996" x2="1121.7793" y1="310.1838" y2="310.1838"/><text fill="#000000" font-family="sans-serif" font-size="14" font-weight="bold" lengthAdjust="spacing" textLength="112.7793" x="1000" y="302.882">Player Control</text></g><!--cluster Farming--><g class="cluster" data-entity="Farming" data-source-line="24" data-uid="ent0011" id="cluster_Farming"><path d="M576.5,416.1869 L642.79,416.1869 A3.75,3.75 0 0 1 645.29,418.6869 L652.29,438.4838 L898.5,438.4838 A2.5,2.5 0 0 1 901,440.9838 L901,637.2769 A2.5,2.5 0 0 1 898.5,639.7769 L576.5,639.7769 A2.5,2.5 0 0 1 574,637.2769 L574,418.6869 A2.5,2.5 0 0 1 576.5,416.1869" fill="none" style="stroke:#000000;stroke-width:1.5;"/><line style="stroke:#000000;stroke-width:1.5;" x1="574" x2="652.29" y1="438.4838" y2="438.4838"/><text fill="#000000" font-family="sans-serif" font-size="14" font-weight="bold" lengthAdjust="spacing" textLength="65.29" x="578" y="431.182">Farming</text></g><!--cluster Items & Inventory--><g class="cluster" data-entity="Items . Inventory" data-source-line="30" data-uid="ent0015" id="cluster_Items . Inventory"><path d="M230.5,295.8869 L373.8789,295.8869 A3.75,3.75 0 0 1 376.3789,298.3869 L383.3789,318.1838 L497.5,318.1838 A2.5,2.5 0 0 1 500,320.6838 L500,736.5769 A2.5,2.5 0 0 1 497.5,739.0769 L230.5,739.0769 A2.5,2.5 0 0 1 228,736.5769 L228,298.3869 A2.5,2.5 0 0 1 230.5,295.8869" fill="none" style="stroke:#000000;stroke-width:1.5;"/><line style="stroke:#000000;stroke-width:1.5;" x1="228" x2="383.3789" y1="318.1838" y2="318.1838"/><text fill="#000000" font-family="sans-serif" font-size="14" font-weight="bold" lengthAdjust="spacing" textLength="142.3789" x="232" y="310.882">Items &amp; Inventory</text></g><!--cluster Resources--><g class="cluster" data-entity="Resources" data-source-line="38" data-uid="ent0021" id="cluster_Resources"><path d="M927.5,552.4869 L1009.7246,552.4869 A3.75,3.75 0 0 1 1012.2246,554.9869 L1019.2246,574.7837 L1266.5,574.7837 A2.5,2.5 0 0 1 1269,577.2837 L1269,637.2769 A2.5,2.5 0 0 1 1266.5,639.7769 L927.5,639.7769 A2.5,2.5 0 0 1 925,637.2769 L925,554.9869 A2.5,2.5 0 0 1 927.5,552.4869" fill="none" style="stroke:#000000;stroke-width:1.5;"/><line style="stroke:#000000;stroke-width:1.5;" x1="925" x2="1019.2246" y1="574.7837" y2="574.7837"/><text fill="#000000" font-family="sans-serif" font-size="14" font-weight="bold" lengthAdjust="spacing" textLength="81.2246" x="929" y="567.482">Resources</text></g><!--cluster Dialogue--><g class="cluster" data-entity="Dialogue" data-source-line="43" data-uid="ent0024" id="cluster_Dialogue"><path d="M1471.5,552.4869 L1542.2676,552.4869 A3.75,3.75 0 0 1 1544.7676,554.9869 L1551.7676,574.7837 L1744.5,574.7837 A2.5,2.5 0 0 1 1747,577.2837 L1747,736.5769 A2.5,2.5 0 0 1 1744.5,739.0769 L1471.5,739.0769 A2.5,2.5 0 0 1 1469,736.5769 L1469,554.9869 A2.5,2.5 0 0 1 1471.5,552.4869" fill="none" style="stroke:#000000;stroke-width:1.5;"/><line style="stroke:#000000;stroke-width:1.5;" x1="1469" x2="1551.7676" y1="574.7837" y2="574.7837"/><text fill="#000000" font-family="sans-serif" font-size="14" font-weight="bold" lengthAdjust="spacing" textLength="69.7676" x="1473" y="567.482">Dialogue</text></g><!--cluster Scene/Transition--><g class="cluster" data-entity="Scene.Transition" data-source-line="48" data-uid="ent0027" id="cluster_Scene.Transition"><path d="M1492.5,161.5969 L1626.0283,161.5969 A3.75,3.75 0 0 1 1628.5283,164.0969 L1635.5283,183.8937 L1689.5,183.8937 A2.5,2.5 0 0 1 1692,186.3937 L1692,380.6869 A2.5,2.5 0 0 1 1689.5,383.1869 L1492.5,383.1869 A2.5,2.5 0 0 1 1490,380.6869 L1490,164.0969 A2.5,2.5 0 0 1 1492.5,161.5969" fill="none" style="stroke:#000000;stroke-width:1.5;"/><line style="stroke:#000000;stroke-width:1.5;" x1="1490" x2="1635.5283" y1="183.8937" y2="183.8937"/><text fill="#000000" font-family="sans-serif" font-size="14" font-weight="bold" lengthAdjust="spacing" textLength="132.5283" x="1494" y="176.592">Scene/Transition</text></g><!--entity GameManager--><g class="entity" data-entity="GameManager" data-source-line="12" data-uid="ent0003" id="entity_GameManager"><rect fill="#F1F1F1" height="36.2969" rx="2.5" ry="2.5" style="stroke:#181818;stroke-width:0.5;" width="123.0449" x="64.48" y="196.5969"/><text fill="#000000" font-family="sans-serif" font-size="14" lengthAdjust="spacing" textLength="103.0449" x="74.48" y="219.592">GameManager</text></g><!--entity GameSceneManager--><g class="entity" data-entity="GameSceneManager" data-source-line="13" data-uid="ent0004" id="entity_GameSceneManager"><rect fill="#F1F1F1" height="36.2969" rx="2.5" ry="2.5" style="stroke:#181818;stroke-width:0.5;" width="165.7285" x="22.14" y="78.2969"/><text fill="#000000" font-family="sans-serif" font-size="14" lengthAdjust="spacing" textLength="145.7285" x="32.14" y="101.292">GameSceneManager</text></g><!--entity Time System--><g class="entity" data-entity="Time System" data-source-line="14" data-uid="ent0005" id="entity_Time System"><rect fill="#F1F1F1" height="36.2969" rx="2.5" ry="2.5" style="stroke:#181818;stroke-width:0.5;" width="111.3486" x="76.33" y="330.8869"/><text fill="#000000" font-family="sans-serif" font-size="14" lengthAdjust="spacing" textLength="91.3486" x="86.33" y="353.882">Time System</text></g><!--entity Character Controller--><g class="entity" data-entity="Character Controller" data-source-line="18" data-uid="ent0007" id="entity_Character Controller"><rect fill="#F1F1F1" height="36.2969" rx="2.5" ry="2.5" style="stroke:#181818;stroke-width:0.5;" width="162.7412" x="1185.63" y="330.8869"/><text fill="#000000" font-family="sans-serif" font-size="14" lengthAdjust="spacing" textLength="142.7412" x="1195.63" y="353.882">Character Controller</text></g><!--entity Interaction Controller--><g class="entity" data-entity="Interaction Controller" data-source-line="19" data-uid="ent0008" id="entity_Interaction Controller"><rect fill="#F1F1F1" height="36.2969" rx="2.5" ry="2.5" style="stroke:#181818;stroke-width:0.5;" width="169.5771" x="1178.21" y="451.1869"/><text fill="#000000" font-family="sans-serif" font-size="14" lengthAdjust="spacing" textLength="149.5771" x="1188.21" y="474.182">Interaction Controller</text></g><!--entity Tools Controller--><g class="entity" data-entity="Tools Controller" data-source-line="20" data-uid="ent0009" id="entity_Tools Controller"><rect fill="#F1F1F1" height="36.2969" rx="2.5" ry="2.5" style="stroke:#181818;stroke-width:0.5;" width="130.4893" x="1019.76" y="330.8869"/><text fill="#000000" font-family="sans-serif" font-size="14" lengthAdjust="spacing" textLength="110.4893" x="1029.76" y="353.882">Tools Controller</text></g><!--entity ToolBar--><g class="entity" data-entity="ToolBar" data-source-line="21" data-uid="ent0010" id="entity_ToolBar"><rect fill="#F1F1F1" height="36.2969" rx="2.5" ry="2.5" style="stroke:#181818;stroke-width:0.5;" width="73.5117" x="1069.24" y="451.1869"/><text fill="#000000" font-family="sans-serif" font-size="14" lengthAdjust="spacing" textLength="53.5117" x="1079.24" y="474.182">ToolBar</text></g><!--entity Crops Manager--><g class="entity" data-entity="Crops Manager" data-source-line="25" data-uid="ent0012" id="entity_Crops Manager"><rect fill="#F1F1F1" height="36.2969" rx="2.5" ry="2.5" style="stroke:#181818;stroke-width:0.5;" width="126.0938" x="589.95" y="451.1869"/><text fill="#000000" font-family="sans-serif" font-size="14" lengthAdjust="spacing" textLength="106.0938" x="599.95" y="474.182">Crops Manager</text></g><!--entity TileMap Reader--><g class="entity" data-entity="TileMap Reader" data-source-line="26" data-uid="ent0013" id="entity_TileMap Reader"><rect fill="#F1F1F1" height="36.2969" rx="2.5" ry="2.5" style="stroke:#181818;stroke-width:0.5;" width="129.1152" x="753.44" y="587.4869"/><text fill="#000000" font-family="sans-serif" font-size="14" lengthAdjust="spacing" textLength="109.1152" x="763.44" y="610.482">TileMap Reader</text></g><!--entity Marker Manager--><g class="entity" data-entity="Marker Manager" data-source-line="27" data-uid="ent0014" id="entity_Marker Manager"><rect fill="#F1F1F1" height="36.2969" rx="2.5" ry="2.5" style="stroke:#181818;stroke-width:0.5;" width="134.707" x="750.65" y="451.1869"/><text fill="#000000" font-family="sans-serif" font-size="14" lengthAdjust="spacing" textLength="114.707" x="760.65" y="474.182">Marker Manager</text></g><!--entity Item/ItemContainer--><g class="entity" data-entity="Item.ItemContainer" data-source-line="31" data-uid="ent0016" id="entity_Item.ItemContainer"><rect fill="#F1F1F1" height="36.2969" rx="2.5" ry="2.5" style="stroke:#181818;stroke-width:0.5;" width="156.8691" x="327.57" y="686.7769"/><text fill="#000000" font-family="sans-serif" font-size="14" lengthAdjust="spacing" textLength="136.8691" x="337.57" y="709.772">Item/ItemContainer</text></g><!--entity Inventory UI--><g class="entity" data-entity="Inventory UI" data-source-line="32" data-uid="ent0017" id="entity_Inventory UI"><rect fill="#F1F1F1" height="36.2969" rx="2.5" ry="2.5" style="stroke:#181818;stroke-width:0.5;" width="105.6953" x="244.15" y="587.4869"/><text fill="#000000" font-family="sans-serif" font-size="14" lengthAdjust="spacing" textLength="85.6953" x="254.15" y="610.482">Inventory UI</text></g><!--entity Drag&Drop Controller--><g class="entity" data-entity="Drag.Drop Controller" data-source-line="33" data-uid="ent0018" id="entity_Drag.Drop Controller"><rect fill="#F1F1F1" height="36.2969" rx="2.5" ry="2.5" style="stroke:#181818;stroke-width:0.5;" width="172.5303" x="277.73" y="330.8869"/><text fill="#000000" font-family="sans-serif" font-size="14" lengthAdjust="spacing" textLength="152.5303" x="287.73" y="353.882">Drag&amp;Drop Controller</text></g><!--entity PickUpItem--><g class="entity" data-entity="PickUpItem" data-source-line="34" data-uid="ent0019" id="entity_PickUpItem"><rect fill="#F1F1F1" height="36.2969" rx="2.5" ry="2.5" style="stroke:#181818;stroke-width:0.5;" width="99.1396" x="384.43" y="587.4869"/><text fill="#000000" font-family="sans-serif" font-size="14" lengthAdjust="spacing" textLength="79.1396" x="394.43" y="610.482">PickUpItem</text></g><!--entity ItemSpawner/SpawnMgr--><g class="entity" data-entity="ItemSpawner.SpawnMgr" data-source-line="35" data-uid="ent0020" id="entity_ItemSpawner.SpawnMgr"><rect fill="#F1F1F1" height="36.2969" rx="2.5" ry="2.5" style="stroke:#181818;stroke-width:0.5;" width="191.0283" x="268.49" y="451.1869"/><text fill="#000000" font-family="sans-serif" font-size="14" lengthAdjust="spacing" textLength="171.0283" x="278.49" y="474.182">ItemSpawner/SpawnMgr</text></g><!--entity Resource Node--><g class="entity" data-entity="Resource Node" data-source-line="39" data-uid="ent0022" id="entity_Resource Node"><rect fill="#F1F1F1" height="36.2969" rx="2.5" ry="2.5" style="stroke:#181818;stroke-width:0.5;" width="126.1279" x="1126.94" y="587.4869"/><text fill="#000000" font-family="sans-serif" font-size="14" lengthAdjust="spacing" textLength="106.1279" x="1136.94" y="610.482">Resource Node</text></g><!--entity ToolAction: Gather--><g class="entity" data-entity="ToolAction. Gather" data-source-line="40" data-uid="ent0023" id="entity_ToolAction. Gather"><rect fill="#F1F1F1" height="36.2969" rx="2.5" ry="2.5" style="stroke:#181818;stroke-width:0.5;" width="150.9902" x="940.5" y="587.4869"/><text fill="#000000" font-family="sans-serif" font-size="14" lengthAdjust="spacing" textLength="130.9902" x="950.5" y="610.482">ToolAction: Gather</text></g><!--entity Dialogue System--><g class="entity" data-entity="Dialogue System" data-source-line="44" data-uid="ent0025" id="entity_Dialogue System"><rect fill="#F1F1F1" height="36.2969" rx="2.5" ry="2.5" style="stroke:#181818;stroke-width:0.5;" width="138.7334" x="1488.63" y="587.4869"/><text fill="#000000" font-family="sans-serif" font-size="14" lengthAdjust="spacing" textLength="118.7334" x="1498.63" y="610.482">Dialogue System</text></g><!--entity Dialogue Data (Actor/Container)--><g class="entity" data-entity="Dialogue Data .Actor.Container." data-source-line="45" data-uid="ent0026" id="entity_Dialogue Data .Actor.Container."><rect fill="#F1F1F1" height="36.2969" rx="2.5" ry="2.5" style="stroke:#181818;stroke-width:0.5;" width="245.5449" x="1485.23" y="686.7769"/><text fill="#000000" font-family="sans-serif" font-size="14" lengthAdjust="spacing" textLength="225.5449" x="1495.23" y="709.772">Dialogue Data (Actor/Container)</text></g><!--entity Transition/Area--><g class="entity" data-entity="Transition.Area" data-source-line="49" data-uid="ent0028" id="entity_Transition.Area"><rect fill="#F1F1F1" height="36.2969" rx="2.5" ry="2.5" style="stroke:#181818;stroke-width:0.5;" width="127.0029" x="1506.5" y="196.5969"/><text fill="#000000" font-family="sans-serif" font-size="14" lengthAdjust="spacing" textLength="107.0029" x="1516.5" y="219.592">Transition/Area</text></g><!--entity Cinemachine Camera--><g class="entity" data-entity="Cinemachine Camera" data-source-line="50" data-uid="ent0029" id="entity_Cinemachine Camera"><rect fill="#F1F1F1" height="36.2969" rx="2.5" ry="2.5" style="stroke:#181818;stroke-width:0.5;" width="170.7051" x="1505.65" y="330.8869"/><text fill="#000000" font-family="sans-serif" font-size="14" lengthAdjust="spacing" textLength="150.7051" x="1515.65" y="353.882">Cinemachine Camera</text></g><!--entity Loot Chest--><g class="entity" data-entity="Loot Chest" data-source-line="73" data-uid="ent0041" id="entity_Loot Chest"><rect fill="#F1F1F1" height="36.2969" rx="2.5" ry="2.5" style="stroke:#181818;stroke-width:0.5;" width="94.915" x="1358.54" y="587.4869"/><text fill="#000000" font-family="sans-serif" font-size="14" lengthAdjust="spacing" textLength="74.915" x="1368.54" y="610.482">Loot Chest</text></g><!--link GameManager to Player Control--><g class="link" data-entity-1="GameManager" data-entity-2="Player Control" data-source-line="56" data-uid="lnk30" id="link_GameManager_Player Control"><path d="M187.74,216.5269 C431.75,219.8769 1317.85,234.5969 1364,271.8869 C1367.2962,274.5506 1370.0875,277.6859 1372.4477,281.1395 C1373.6278,282.8663 1374.7002,284.6727 1375.674,286.5395 C1375.7957,286.7728 1375.9159,287.0071 1376.0346,287.2423 C1376.0939,287.3599 1373.4859,304.3999 1373.5445,304.518" fill="none" id="GameManager-to-Player Control" style="stroke:#181818;stroke-width:1;"/><polygon fill="#181818" points="1376.2115,309.8927,1375.7941,300.0526,1373.989,305.4137,1368.6279,303.6086,1376.2115,309.8927" style="stroke:#181818;stroke-width:1;"/></g><!--link GameManager to Dialogue System--><g class="link" data-entity-1="GameManager" data-entity-2="Dialogue System" data-source-line="57" data-uid="lnk31" id="link_GameManager_Dialogue System"><path d="M187.84,216.4369 C436.51,219.5169 1352.42,233.4069 1400,271.8869 C1454.08,315.6169 1528.3396,519.5631 1550.0396,581.6231" fill="none" id="GameManager-to-Dialogue System" style="stroke:#181818;stroke-width:1;"/><polygon fill="#181818" points="1552.02,587.2869,1552.8252,577.471,1550.3697,582.5671,1545.2736,580.1115,1552.02,587.2869" style="stroke:#181818;stroke-width:1;"/></g><!--link GameManager to Item/ItemContainer--><g class="link" data-entity-1="GameManager" data-entity-2="Item.ItemContainer" data-source-line="58" data-uid="lnk32" id="link_GameManager_Item.ItemContainer"><path d="M187.89,217.2869 C275.81,220.8569 430.42,232.6869 468,271.8869 C584.05,392.9569 584.11,502.1169 501,647.7769 C491.13,665.0869 478.9554,674.8914 461.6154,683.6514" fill="none" id="GameManager-to-Item/ItemContainer" style="stroke:#181818;stroke-width:1;"/><polygon fill="#181818" points="456.26,686.3569,466.0968,685.8689,460.7228,684.1023,462.4894,678.7284,456.26,686.3569" style="stroke:#181818;stroke-width:1;"/></g><!--link GameManager to Time System--><g class="link" data-entity-1="GameManager" data-entity-2="Time System" data-source-line="59" data-uid="lnk33" id="link_GameManager_Time System"><path d="M126.8,233.3069 C127.94,258.6169 129.778,299.063 130.928,324.403" fill="none" id="GameManager-to-Time System" style="stroke:#181818;stroke-width:1;"/><polygon fill="#181818" points="131.2,330.3969,134.7879,321.2248,130.9733,325.402,126.7961,321.5875,131.2,330.3969" style="stroke:#181818;stroke-width:1;"/></g><!--link GameSceneManager to Transition/Area--><g class="link" data-entity-1="GameSceneManager" data-entity-2="Transition.Area" data-source-line="61" data-uid="lnk34" id="link_GameSceneManager_Transition.Area"><path d="M188.25,101.7369 C327,109.0969 614.3,125.2169 857,144.5969 C1096.88,163.7369 1375.5142,192.8071 1500.1842,206.1771" fill="none" id="GameSceneManager-to-Transition/Area" style="stroke:#181818;stroke-width:1;"/><polygon fill="#181818" points="1506.15,206.8169,1497.6278,201.88,1501.1785,206.2837,1496.7748,209.8344,1506.15,206.8169" style="stroke:#181818;stroke-width:1;"/></g><!--link Transition/Area to GameSceneManager--><g class="link" data-entity-1="Transition.Area" data-entity-2="GameSceneManager" data-source-line="104" data-uid="lnk56" id="link_Transition.Area_GameSceneManager"><path d="M1506.38,208.6869 C1271.48,190.0469 458.8712,125.5317 194.2112,104.5217" fill="none" id="Transition/Area-to-GameSceneManager" style="stroke:#181818;stroke-width:1;"/><polygon fill="#181818" points="188.23,104.0469,196.8852,108.7466,193.2143,104.4426,197.5183,100.7716,188.23,104.0469" style="stroke:#181818;stroke-width:1;"/></g><!--link GameSceneManager to GameManager--><g class="link" data-entity-1="GameSceneManager" data-entity-2="GameManager" data-source-line="62" data-uid="lnk35" id="link_GameSceneManager_GameManager"><path d="M108.14,114.8569 C112.1,136.7769 117.8061,168.3219 121.7661,190.3019" fill="none" id="GameSceneManager-to-GameManager" style="stroke:#181818;stroke-width:1;"/><polygon fill="#181818" points="122.83,196.2069,125.1708,186.6402,121.9435,191.2861,117.2976,188.0587,122.83,196.2069" style="stroke:#181818;stroke-width:1;"/></g><!--link Time System to Crops Manager--><g class="link" data-entity-1="Time System" data-entity-2="Crops Manager" data-source-line="64" data-uid="lnk36" id="link_Time System_Crops Manager"><path d="M165.24,367.6369 C183.29,376.3169 206.3,386.0169 228,391.1869 C345.83,419.2369 381.75,381.9269 500,408.1869 C541.79,417.4669 581.7034,433.9784 612.0934,448.1684" fill="none" id="Time System-to-Crops Manager" style="stroke:#181818;stroke-width:1;stroke-dasharray:7,7;"/><polygon fill="#181818" points="617.53,450.7069,611.0675,443.2748,612.9995,448.5915,607.6828,450.5235,617.53,450.7069" style="stroke:#181818;stroke-width:1;"/></g><!--link Time System to ItemSpawner/SpawnMgr--><g class="link" data-entity-1="Time System" data-entity-2="ItemSpawner.SpawnMgr" data-source-line="65" data-uid="lnk37" id="link_Time System_ItemSpawner.SpawnMgr"><path d="M166.48,367.6169 C210.41,390.0169 280.5246,425.7717 324.3646,448.1217" fill="none" id="Time System-to-ItemSpawner/SpawnMgr" style="stroke:#181818;stroke-width:1;stroke-dasharray:7,7;"/><polygon fill="#181818" points="329.71,450.8469,323.5086,443.1955,325.2555,448.5759,319.8751,450.3228,329.71,450.8469" style="stroke:#181818;stroke-width:1;"/></g><!--link Character Controller to Interaction Controller--><g class="link" data-entity-1="Character Controller" data-entity-2="Interaction Controller" data-source-line="70" data-uid="lnk38" id="link_Character Controller_Interaction Controller"><path d="M1266.41,367.4969 C1265.65,389.8569 1264.5535,422.4103 1263.7935,444.8103" fill="none" id="Character Controller-to-Interaction Controller" style="stroke:#181818;stroke-width:1;"/><polygon fill="#181818" points="1263.59,450.8069,1267.8929,441.9477,1263.7595,445.8098,1259.8975,441.6764,1263.59,450.8069" style="stroke:#181818;stroke-width:1;"/></g><!--link Interaction Controller to Resource Node--><g class="link" data-entity-1="Interaction Controller" data-entity-2="Resource Node" data-source-line="71" data-uid="lnk39" id="link_Interaction Controller_Resource Node"><path d="M1253.46,487.8869 C1239.47,513.6269 1216.4052,556.0552 1202.4152,581.7952" fill="none" id="Interaction Controller-to-Resource Node" style="stroke:#181818;stroke-width:1;"/><polygon fill="#181818" points="1199.55,587.0669,1207.3623,581.0695,1201.9377,582.6738,1200.3334,577.2492,1199.55,587.0669" style="stroke:#181818;stroke-width:1;"/></g><!--link Interaction Controller to Dialogue System--><g class="link" data-entity-1="Interaction Controller" data-entity-2="Dialogue System" data-source-line="72" data-uid="lnk40" id="link_Interaction Controller_Dialogue System"><path d="M1303.15,487.9169 C1337.41,502.4269 1388.26,522.7869 1434,536.4869 C1450.12,541.3069 1455.56,537.7969 1471,544.4869 C1495.77,555.2169 1516.1138,569.685 1532.9138,583.265" fill="none" id="Interaction Controller-to-Dialogue System" style="stroke:#181818;stroke-width:1;"/><polygon fill="#181818" points="1537.58,587.0369,1533.0953,578.2683,1533.6915,583.8937,1528.0662,584.4899,1537.58,587.0369" style="stroke:#181818;stroke-width:1;"/></g><!--link Interaction Controller to Loot Chest--><g class="link" data-entity-1="Interaction Controller" data-entity-2="Loot Chest" data-source-line="73" data-uid="lnk42" id="link_Interaction Controller_Loot Chest"><path d="M1281.69,487.8869 C1309.1,513.6269 1355.5162,557.2196 1382.9262,582.9596" fill="none" id="Interaction Controller-to-Loot Chest" style="stroke:#181818;stroke-width:1;"/><polygon fill="#181818" points="1387.3,587.0669,1383.4775,577.9901,1383.6552,583.6441,1378.0011,583.8218,1387.3,587.0669" style="stroke:#181818;stroke-width:1;"/></g><!--link Tools Controller to ToolBar--><g class="link" data-entity-1="Tools Controller" data-entity-2="ToolBar" data-source-line="75" data-uid="lnk43" id="link_Tools Controller_ToolBar"><path d="M1088.1,367.4969 C1092.07,389.8569 1097.8604,422.4994 1101.8404,444.8994" fill="none" id="Tools Controller-to-ToolBar" style="stroke:#181818;stroke-width:1;"/><polygon fill="#181818" points="1102.89,450.8069,1105.2539,441.2459,1102.0153,445.884,1097.3772,442.6454,1102.89,450.8069" style="stroke:#181818;stroke-width:1;"/></g><!--link Tools Controller to ToolAction: Gather--><g class="link" data-entity-1="Tools Controller" data-entity-2="ToolAction. Gather" data-source-line="76" data-uid="lnk44" id="link_Tools Controller_ToolAction. Gather"><path d="M1072.96,367.6169 C1065.85,378.7769 1057.24,393.7869 1052,408.1869 C1028.96,471.5669 1020.6454,546.0574 1017.7454,581.0574" fill="none" id="Tools Controller-to-ToolAction: Gather" style="stroke:#181818;stroke-width:1;"/><polygon fill="#181818" points="1017.25,587.0369,1021.9795,578.3979,1017.6629,582.054,1014.0068,577.7373,1017.25,587.0369" style="stroke:#181818;stroke-width:1;"/></g><!--link Tools Controller to Crops Manager--><g class="link" data-entity-1="Tools Controller" data-entity-2="Crops Manager" data-source-line="77" data-uid="lnk45" id="link_Tools Controller_Crops Manager"><path d="M1019.47,351.5869 C946.75,355.3769 827.25,367.8669 733,408.1869 C709.2,418.3669 690.439,433.0401 675.209,446.8901" fill="none" id="Tools Controller-to-Crops Manager" style="stroke:#181818;stroke-width:1;"/><polygon fill="#181818" points="670.77,450.9269,680.1196,447.8311,674.4692,447.5629,674.7373,441.9124,670.77,450.9269" style="stroke:#181818;stroke-width:1;"/></g><!--link Tools Controller to TileMap Reader--><g class="link" data-entity-1="Tools Controller" data-entity-2="TileMap Reader" data-source-line="78" data-uid="lnk46" id="link_Tools Controller_TileMap Reader"><path d="M1063.02,367.5069 C1049.19,378.7469 1031.15,393.8869 1016,408.1869 C962.88,458.3069 955.19,476.3969 903,527.4869 C881.35,548.6769 859.9559,567.9349 842.4759,583.3049" fill="none" id="Tools Controller-to-TileMap Reader" style="stroke:#181818;stroke-width:1;"/><polygon fill="#181818" points="837.97,587.2669,847.3701,584.3278,841.7249,583.9652,842.0875,578.32,837.97,587.2669" style="stroke:#181818;stroke-width:1;"/></g><!--link Tools Controller to Marker Manager--><g class="link" data-entity-1="Tools Controller" data-entity-2="Marker Manager" data-source-line="79" data-uid="lnk47" id="link_Tools Controller_Marker Manager"><path d="M1019.34,363.7469 C987.26,371.7769 948.62,383.4769 916,399.1869 C887.11,413.0969 862.1606,431.5059 843.1706,446.9859" fill="none" id="Tools Controller-to-Marker Manager" style="stroke:#181818;stroke-width:1;"/><polygon fill="#181818" points="838.52,450.7769,848.0233,448.1908,842.3955,447.6177,842.9686,441.9899,838.52,450.7769" style="stroke:#181818;stroke-width:1;"/></g><!--link Crops Manager to Item/ItemContainer--><g class="link" data-entity-1="Crops Manager" data-entity-2="Item.ItemContainer" data-source-line="84" data-uid="lnk48" id="link_Crops Manager_Item.ItemContainer"><path d="M649.51,487.8769 C641.25,524.7469 617,610.7069 563,656.7769 C541.13,675.4369 517.8998,685.2576 490.7398,692.0676" fill="none" id="Crops Manager-to-Item/ItemContainer" style="stroke:#181818;stroke-width:1;"/><polygon fill="#181818" points="484.92,693.5269,494.6226,695.2179,489.7699,692.3108,492.6769,687.4581,484.92,693.5269" style="stroke:#181818;stroke-width:1;"/><text fill="#000000" font-family="sans-serif" font-size="13" lengthAdjust="spacing" textLength="84.4111" x="634" y="610.1938">yield harvest</text></g><!--link Crops Manager to TileMap Reader--><g class="link" data-entity-1="Crops Manager" data-entity-2="TileMap Reader" data-source-line="85" data-uid="lnk49" id="link_Crops Manager_TileMap Reader"><path d="M674.57,487.8869 C706.19,513.6269 760.1468,557.539 791.7668,583.279" fill="none" id="Crops Manager-to-TileMap Reader" style="stroke:#181818;stroke-width:1;"/><polygon fill="#181818" points="796.42,587.0669,791.9655,578.2829,792.5424,583.9103,786.915,584.4872,796.42,587.0669" style="stroke:#181818;stroke-width:1;"/></g><!--link PickUpItem to Item/ItemContainer--><g class="link" data-entity-1="PickUpItem" data-entity-2="Item.ItemContainer" data-source-line="90" data-uid="lnk50" id="link_PickUpItem_Item.ItemContainer"><path d="M428.99,624.0269 C423.93,641.6269 417.7987,662.9307 412.7187,680.5907" fill="none" id="PickUpItem-to-Item/ItemContainer" style="stroke:#181818;stroke-width:1;"/><polygon fill="#181818" points="411.06,686.3569,417.3921,678.8134,412.4422,681.5517,409.7039,676.6018,411.06,686.3569" style="stroke:#181818;stroke-width:1;"/></g><!--link ItemSpawner/SpawnMgr to PickUpItem--><g class="link" data-entity-1="ItemSpawner.SpawnMgr" data-entity-2="PickUpItem" data-source-line="91" data-uid="lnk51" id="link_ItemSpawner.SpawnMgr_PickUpItem"><path d="M373.15,487.8869 C386.57,513.6269 408.6562,556.0066 422.0762,581.7466" fill="none" id="ItemSpawner/SpawnMgr-to-PickUpItem" style="stroke:#181818;stroke-width:1;"/><polygon fill="#181818" points="424.85,587.0669,424.2361,577.2372,422.5385,582.6333,417.1424,580.9356,424.85,587.0669" style="stroke:#181818;stroke-width:1;"/></g><!--link Drag&Drop Controller to ItemSpawner/SpawnMgr--><g class="link" data-entity-1="Drag.Drop Controller" data-entity-2="ItemSpawner.SpawnMgr" data-source-line="92" data-uid="lnk52" id="link_Drag.Drop Controller_ItemSpawner.SpawnMgr"><path d="M364,367.4969 C364,389.8569 364,422.4069 364,444.8069" fill="none" id="Drag&amp;Drop Controller-to-ItemSpawner/SpawnMgr" style="stroke:#181818;stroke-width:1;"/><polygon fill="#181818" points="364,450.8069,368,441.8069,364,445.8069,360,441.8069,364,450.8069" style="stroke:#181818;stroke-width:1;"/></g><!--link Inventory UI to Item/ItemContainer--><g class="link" data-entity-1="Inventory UI" data-entity-2="Item.ItemContainer" data-source-line="93" data-uid="lnk53" id="link_Inventory UI_Item.ItemContainer"><path d="M316.74,624.2469 C336.49,641.8869 362.2333,664.862 381.9333,682.442" fill="none" id="Inventory UI-to-Item/ItemContainer" style="stroke:#181818;stroke-width:1;"/><polygon fill="#181818" points="386.41,686.4369,382.3583,677.46,382.6794,683.1078,377.0317,683.4289,386.41,686.4369" style="stroke:#181818;stroke-width:1;"/></g><!--link ToolBar to Item/ItemContainer--><g class="link" data-entity-1="ToolBar" data-entity-2="Item.ItemContainer" data-source-line="94" data-uid="lnk54" id="link_ToolBar_Item.ItemContainer"><path d="M1117.86,487.7769 C1127.79,500.9069 1143.17,518.1969 1161,527.4869 C1204.09,549.9369 1237.43,507.5469 1269,544.4869 C1298.83,579.3769 1300.39,614.2769 1269,647.7769 C1242.39,676.1769 698.5873,695.2357 490.6973,701.5157" fill="none" id="ToolBar-to-Item/ItemContainer" style="stroke:#181818;stroke-width:1;"/><polygon fill="#181818" points="484.7,701.6969,493.8167,705.4233,489.6977,701.5459,493.5751,697.4269,484.7,701.6969" style="stroke:#181818;stroke-width:1;"/></g><!--link Dialogue System to Dialogue Data (Actor/Container)--><g class="link" data-entity-1="Dialogue System" data-entity-2="Dialogue Data .Actor.Container." data-source-line="99" data-uid="lnk55" id="link_Dialogue System_Dialogue Data .Actor.Container."><path d="M1566.94,624.0269 C1575.98,641.6269 1587.1465,663.3609 1596.2265,681.0209" fill="none" id="Dialogue System-to-Dialogue Data (Actor/Container)" style="stroke:#181818;stroke-width:1;"/><polygon fill="#181818" points="1598.97,686.3569,1598.412,676.5238,1596.6837,681.9102,1591.2973,680.1819,1598.97,686.3569" style="stroke:#181818;stroke-width:1;"/></g><!--link Transition/Area to Cinemachine Camera--><g class="link" data-entity-1="Transition.Area" data-entity-2="Cinemachine Camera" data-source-line="105" data-uid="lnk57" id="link_Transition.Area_Cinemachine Camera"><path d="M1572.79,233.3069 C1576.81,258.6169 1583.2399,299.131 1587.2599,324.471" fill="none" id="Transition/Area-to-Cinemachine Camera" style="stroke:#181818;stroke-width:1;"/><polygon fill="#181818" points="1588.2,330.3969,1590.7404,320.8813,1587.4166,325.4586,1582.8393,322.1348,1588.2,330.3969" style="stroke:#181818;stroke-width:1;"/></g><g class="legend" data-source-line="4"><rect fill="#DDDDDD" height="75.1875" rx="7.5" ry="7.5" style="stroke:#000000;stroke-width:1;" width="214.6137" x="12" y="757.0769"/><line style="stroke:#000000;stroke-width:1;" x1="12" x2="89.0202" y1="770.2253" y2="770.2253"/><line style="stroke:#000000;stroke-width:1;" x1="12" x2="89.0202" y1="772.2253" y2="772.2253"/><text fill="#000000" font-family="sans-serif" font-size="14" lengthAdjust="spacing" textLength="51.6729" x="93.4704" y="774.572">Legend</text><line style="stroke:#000000;stroke-width:1;" x1="149.5935" x2="226.6137" y1="770.2253" y2="770.2253"/><line style="stroke:#000000;stroke-width:1;" x1="149.5935" x2="226.6137" y1="772.2253" y2="772.2253"/><text fill="#000000" font-family="sans-serif" font-size="14" lengthAdjust="spacing" textLength="204.6137" x="17" y="791.3689">[Component]   &#51452;&#50836; &#49884;&#49828;&#53596; &#47784;&#46280;</text><text fill="#000000" font-family="sans-serif" font-size="14" lengthAdjust="spacing" textLength="139.9026" x="17" y="807.6657">--&gt;           &#51032;&#51316;&#49457;/&#54840;&#52636;</text><text fill="#000000" font-family="sans-serif" font-size="14" lengthAdjust="spacing" textLength="164.4594" x="17" y="823.9626">..&gt;           &#51060;&#48292;&#53944;/&#44036;&#51217;&#52280;&#51312;</text></g><!--SRC=[VLN1QXin4BtlLmmvfEqXMUWnu49gKsD8IeYJK_11hDNrOgsqQ9KKKmezf53IKsaE8RZGq1nAJsa99OT-JO_D-Xywkz7QbgoL3pOQFJsDPjuyv-E4PqII52AHPe9JhlfgmYX86Yd2OqO3bIXS7_94JU1f1ruGcSB-NXV-lZk7Tdq8EWc9aIO868qf7mAZhrG0q6h1paEWrSBbqVp0002ARt-AotCeFawBi-lP-odS__X-__a3uZOsdi7YKtovAAvkYzEVuUpYhlWzHS3cfWculVzrFJkx2__Td1PVFnKtTyNLJO3NFcGJ11c9nYIciDOMaa9_aYkQvclmfiofIrAwIpXkoq6zxaUK6y639AtF3OAtIuHxZ4oen4fm9GNJbEqHrZHIYpZJD3sEGTn91BUt3eHWkIlud4Zpoh852O_hkwJ8SZ1pPPXx1lkK37LebyWnPZD7BTFrobh0ElJu2JP6o8acBkDX-LNcH18-VuA6mM6l2dGaYTSxc8MT_5uIZG-pNbKopTVFo6ia2glVtTZAP9_cubX6jEvClOQNOaZdzTYkohS5NQ96zbjGXap4nrGJrCjvvvPZ7Q88F4Os8SFv4v-OV9KEmWD9U9wKjshUHI3SbfHKl6qydf9eX3_GHWb9Kb4zGkKxFxXJYL5IHagct0CrD5fDnv6fku4Bil9w1yRLP0VCa7-mEY8QPPUb2MYCN62mLwDjYzg1SAl9MsvTCYP4vgkrStXrjHh6jsdZuPGbOpzujMbU-8uG2jeZcgEZbfMqJKGtfhOH7y2UgoRiIcyQA2qNQiBPrkHjeRO-R_kCz1fL3bimIIWR0dRx1CldFcW_mfjSPQI-r9OCqJDzJcNheLzoLBVlBdXNXyEqRay6jLoQ8Tuwr1BsbSAMkIN-9c_stckRjUz-sweMlcJ-zJS07MR_7m00]--></g></svg>